<svg width="35" height="35" viewBox="0 0 35 35" fill="none" xmlns="http://www.w3.org/2000/svg">
<path d="M1.10267 1.10316C1.72385 0.482158 2.56625 0.133301 3.4446 0.133301C4.32296 0.133301 5.16536 0.482158 5.78654 1.10316L17.4995 12.8162L29.2125 1.10316C29.8373 0.499757 30.674 0.165876 31.5426 0.173423C32.4111 0.18097 33.2419 0.529343 33.8561 1.14351C34.4702 1.75767 34.8186 2.58849 34.8261 3.45701C34.8337 4.32554 34.4998 5.16229 33.8964 5.78703L22.1834 17.5L33.8964 29.213C34.4998 29.8378 34.8337 30.6745 34.8261 31.543C34.8186 32.4116 34.4702 33.2424 33.8561 33.8566C33.2419 34.4707 32.4111 34.8191 31.5426 34.8266C30.674 34.8342 29.8373 34.5003 29.2125 33.8969L17.4995 22.1839L5.78654 33.8969C5.1618 34.5003 4.32505 34.8342 3.45653 34.8266C2.588 34.8191 1.75718 34.4707 1.14302 33.8566C0.528854 33.2424 0.180482 32.4116 0.172935 31.543C0.165387 30.6745 0.499269 29.8378 1.10267 29.213L12.8157 17.5L1.10267 5.78703C0.481669 5.16585 0.132812 4.32345 0.132812 3.44509C0.132812 2.56674 0.481669 1.72434 1.10267 1.10316Z" fill="#F8F8F8"/>
</svg>
