<?xml version="1.0" encoding="utf-8"?>
<!-- Generator: Adobe Illustrator 22.0.0, SVG Export Plug-In . SVG Version: 6.00 Build 0)  -->
<svg version="1.1" id="图层_1" xmlns="http://www.w3.org/2000/svg" xmlns:xlink="http://www.w3.org/1999/xlink" x="0px" y="0px"
	 viewBox="0 0 595.3 735.9" style="enable-background:new 0 0 595.3 735.9;" xml:space="preserve">
<style type="text/css">
	.st0{fill:#EA56A0;}
	.st1{fill:#2AA366;}
	.st2{fill:#42AEEF;}
	.st3{fill:#C65F93;}
	.st4{fill:#606060;}
	.st5{fill:#F19DB5;}
	.st6{fill:#F1A035;}
	.st7{fill:#F9D952;}
	.st8{fill:#A64D9D;}
	.st9{fill:#7FB3E3;}
	.st10{fill:#EB4F5A;}
	.st11{fill:#FFF156;}
	.st12{fill:#E569A5;}
	.st13{fill:#F8C538;}
	.st14{fill:#EB304F;}
	.st15{fill:#EB4DA1;}
	.st16{clip-path:url(#SVGID_2_);}
	.st17{fill:#F17252;}
	.st18{clip-path:url(#SVGID_4_);}
	.st19{clip-path:url(#SVGID_6_);fill:#F17252;}
	.st20{clip-path:url(#SVGID_6_);}
	.st21{clip-path:url(#SVGID_8_);}
	.st22{clip-path:url(#SVGID_10_);fill:#A64D9D;}
	.st23{clip-path:url(#SVGID_10_);}
	.st24{fill:none;stroke:#51AC71;stroke-miterlimit:10;}
	.st25{fill:#50A56E;}
	.st26{clip-path:url(#SVGID_12_);fill:#EC2F4D;}
	.st27{clip-path:url(#SVGID_14_);}
	.st28{fill:#4FB272;}
	.st29{clip-path:url(#SVGID_16_);}
	.st30{clip-path:url(#SVGID_18_);}
	.st31{clip-path:url(#SVGID_20_);}
	.st32{clip-path:url(#SVGID_22_);}
	.st33{fill:#85CFEA;}
	.st34{clip-path:url(#SVGID_24_);fill:#85CFEA;}
	.st35{clip-path:url(#SVGID_26_);fill:#85CFEA;}
	.st36{clip-path:url(#SVGID_28_);fill:#85CFEA;}
	.st37{clip-path:url(#SVGID_30_);fill:#85CFEA;}
	.st38{clip-path:url(#SVGID_32_);fill:#85CFEA;}
	.st39{clip-path:url(#SVGID_34_);fill:#85CFEA;}
	.st40{clip-path:url(#SVGID_36_);fill:#85CFEA;}
	.st41{clip-path:url(#SVGID_38_);fill:#85CFEA;}
	.st42{clip-path:url(#SVGID_40_);fill:#85CFEA;}
	.st43{clip-path:url(#SVGID_42_);fill:#85CFEA;}
	.st44{clip-path:url(#SVGID_44_);}
	.st45{fill:#3FA89A;}
	.st46{clip-path:url(#SVGID_46_);fill:#3FA89A;}
	.st47{clip-path:url(#SVGID_46_);}
	.st48{fill:none;stroke:#EB4F5A;stroke-width:0.3939;stroke-miterlimit:10;}
	.st49{clip-path:url(#SVGID_46_);fill:none;stroke:#EB4F5A;stroke-width:0.3939;stroke-miterlimit:10;}
	.st50{clip-path:url(#SVGID_48_);}
	.st51{fill:#7F479E;}
	.st52{opacity:0.4;}
	.st53{clip-path:url(#SVGID_50_);}
	.st54{fill:#979DD1;}
	.st55{clip-path:url(#SVGID_52_);}
	.st56{clip-path:url(#SVGID_54_);}
	.st57{fill:#5B1DCA;}
	.st58{fill:#FFDE31;}
	.st59{fill:#E00B0F;}
	.st60{fill:#2DEFE4;}
	.st61{fill:#FFEEC3;}
	.st62{fill:#E40A0B;}
	.st63{fill:#16D1A4;}
	.st64{fill:#E20A0B;}
	.st65{clip-path:url(#SVGID_58_);}
	.st66{clip-path:url(#SVGID_60_);}
	.st67{clip-path:url(#SVGID_62_);fill:#F17252;}
	.st68{clip-path:url(#SVGID_62_);}
	.st69{clip-path:url(#SVGID_64_);}
	.st70{clip-path:url(#SVGID_66_);fill:#A64D9D;}
	.st71{clip-path:url(#SVGID_66_);}
	.st72{clip-path:url(#SVGID_68_);fill:#EC2F4D;}
	.st73{clip-path:url(#SVGID_70_);}
	.st74{clip-path:url(#SVGID_72_);}
	.st75{clip-path:url(#SVGID_74_);}
	.st76{clip-path:url(#SVGID_76_);}
	.st77{clip-path:url(#SVGID_78_);}
	.st78{clip-path:url(#SVGID_80_);fill:#85CFEA;}
	.st79{clip-path:url(#SVGID_82_);fill:#85CFEA;}
	.st80{clip-path:url(#SVGID_84_);fill:#85CFEA;}
	.st81{clip-path:url(#SVGID_86_);fill:#85CFEA;}
	.st82{clip-path:url(#SVGID_88_);fill:#85CFEA;}
	.st83{clip-path:url(#SVGID_90_);fill:#85CFEA;}
	.st84{clip-path:url(#SVGID_92_);fill:#85CFEA;}
	.st85{clip-path:url(#SVGID_94_);fill:#85CFEA;}
	.st86{clip-path:url(#SVGID_96_);fill:#85CFEA;}
	.st87{clip-path:url(#SVGID_98_);fill:#85CFEA;}
	.st88{clip-path:url(#SVGID_100_);}
	.st89{clip-path:url(#SVGID_102_);fill:#3FA89A;}
	.st90{clip-path:url(#SVGID_102_);}
	.st91{clip-path:url(#SVGID_102_);fill:none;stroke:#EB4F5A;stroke-width:0.3939;stroke-miterlimit:10;}
	.st92{clip-path:url(#SVGID_104_);}
	.st93{clip-path:url(#SVGID_106_);}
	.st94{clip-path:url(#SVGID_108_);}
	.st95{clip-path:url(#SVGID_110_);}
	.st96{fill:#571ECD;}
	.st97{fill:#17D0A4;}
	.st98{fill:#38E092;}
	.st99{fill:#BFFCFD;}
	.st100{fill:#FF8F15;}
	.st101{clip-path:url(#SVGID_120_);}
	.st102{clip-path:url(#SVGID_122_);fill:#FF8F15;}
	.st103{clip-path:url(#SVGID_122_);}
	.st104{fill:#E44A40;}
	.st105{clip-path:url(#SVGID_128_);}
	.st106{clip-path:url(#SVGID_130_);fill:#E44A40;}
	.st107{clip-path:url(#SVGID_130_);}
	.st108{fill:none;stroke:#DFEA34;stroke-width:3;stroke-miterlimit:10;}
	.st109{fill:#DFEA34;}
	.st110{clip-path:url(#SVGID_134_);fill:#E20A0B;}
	.st111{clip-path:url(#SVGID_138_);}
	.st112{fill:#E10AA6;}
	.st113{clip-path:url(#SVGID_146_);}
	.st114{clip-path:url(#SVGID_148_);}
	.st115{clip-path:url(#SVGID_150_);}
	.st116{clip-path:url(#SVGID_158_);}
	.st117{fill:#8C1691;}
	.st118{clip-path:url(#SVGID_180_);fill:#8C1691;}
	.st119{clip-path:url(#SVGID_182_);fill:#8C1691;}
	.st120{clip-path:url(#SVGID_184_);fill:#8C1691;}
	.st121{clip-path:url(#SVGID_186_);fill:#8C1691;}
	.st122{clip-path:url(#SVGID_188_);fill:#8C1691;}
	.st123{clip-path:url(#SVGID_190_);fill:#8C1691;}
	.st124{clip-path:url(#SVGID_192_);fill:#8C1691;}
	.st125{clip-path:url(#SVGID_194_);fill:#8C1691;}
	.st126{clip-path:url(#SVGID_196_);fill:#8C1691;}
	.st127{clip-path:url(#SVGID_198_);fill:#8C1691;}
	.st128{clip-path:url(#SVGID_220_);}
	.st129{clip-path:url(#SVGID_222_);fill:#E10AA6;}
	.st130{clip-path:url(#SVGID_222_);}
	.st131{clip-path:url(#SVGID_222_);fill:none;stroke:#EB4F5A;stroke-width:0.3939;stroke-miterlimit:10;}
	.st132{clip-path:url(#SVGID_224_);}
	.st133{fill:#99F58A;}
	.st134{clip-path:url(#SVGID_226_);}
	.st135{fill:#41DE91;}
	.st136{clip-path:url(#SVGID_228_);}
	.st137{clip-path:url(#SVGID_232_);}
	.st138{clip-path:url(#SVGID_236_);}
	.st139{fill:#FF8F13;}
	.st140{clip-path:url(#SVGID_238_);}
	.st141{clip-path:url(#SVGID_240_);}
	.st142{fill:#541FCF;}
	.st143{clip-path:url(#SVGID_244_);}
	.st144{fill:url(#SVGID_247_);}
	.st145{fill:url(#SVGID_248_);}
	.st146{fill:#98F58A;}
	.st147{fill:#14D2A2;}
	.st148{fill:#F99315;}
	.st149{fill:#8A188A;}
	.st150{fill:#FEB800;}
	.st151{fill:none;stroke:#2DEFE4;stroke-miterlimit:10;}
	.st152{clip-path:url(#SVGID_272_);}
	.st153{clip-path:url(#XMLID_2_);fill:#8A188A;}
	.st154{clip-path:url(#XMLID_2_);}
	.st155{clip-path:url(#XMLID_3_);fill:#8A188A;}
	.st156{clip-path:url(#XMLID_3_);}
	.st157{clip-path:url(#SVGID_274_);}
	.st158{clip-path:url(#XMLID_4_);fill:#FF8F15;}
	.st159{clip-path:url(#XMLID_4_);}
	.st160{clip-path:url(#XMLID_5_);fill:#FF8F15;}
	.st161{clip-path:url(#XMLID_5_);}
	.st162{clip-path:url(#SVGID_276_);}
	.st163{clip-path:url(#SVGID_278_);}
	.st164{opacity:0.22;fill:#FF8F13;}
	.st165{opacity:0.231;fill:#FF8F13;}
	.st166{opacity:0.242;fill:#FF8F13;}
	.st167{opacity:0.253;fill:#FF8F13;}
	.st168{opacity:0.2639;fill:#FF8F13;}
	.st169{opacity:0.2749;fill:#FF8F13;}
	.st170{opacity:0.2859;fill:#FF8F13;}
	.st171{opacity:0.2969;fill:#FF8F13;}
	.st172{opacity:0.3079;fill:#FF8F13;}
	.st173{opacity:0.3189;fill:#FF8F13;}
	.st174{opacity:0.3299;fill:#FF8F13;}
	.st175{opacity:0.3408;fill:#FF8F13;}
	.st176{opacity:0.3518;fill:#FF8F13;}
	.st177{opacity:0.3628;fill:#FF8F13;}
	.st178{opacity:0.3738;fill:#FF8F13;}
	.st179{opacity:0.3848;fill:#FF8F13;}
	.st180{opacity:0.3958;fill:#FF8F13;}
	.st181{opacity:0.4068;fill:#FF8F13;}
	.st182{opacity:0.4177;fill:#FF8F13;}
	.st183{opacity:0.4287;fill:#FF8F13;}
	.st184{opacity:0.4397;fill:#FF8F13;}
	.st185{opacity:0.4507;fill:#FF8F13;}
	.st186{opacity:0.4617;fill:#FF8F13;}
	.st187{opacity:0.4727;fill:#FF8F13;}
	.st188{opacity:0.4837;fill:#FF8F13;}
	.st189{opacity:0.4946;fill:#FF8F13;}
	.st190{opacity:0.5056;fill:#FF8F13;}
	.st191{opacity:0.5166;fill:#FF8F13;}
	.st192{opacity:0.5276;fill:#FF8F13;}
	.st193{opacity:0.5386;fill:#FF8F13;}
	.st194{opacity:0.5496;fill:#FF8F13;}
	.st195{opacity:0.5606;fill:#FF8F13;}
	.st196{opacity:0.5715;fill:#FF8F13;}
	.st197{opacity:0.5825;fill:#FF8F13;}
	.st198{opacity:0.5935;fill:#FF8F13;}
	.st199{opacity:0.6045;fill:#FF8F13;}
	.st200{opacity:0.6155;fill:#FF8F13;}
	.st201{opacity:0.6265;fill:#FF8F13;}
	.st202{opacity:0.6375;fill:#FF8F13;}
	.st203{opacity:0.6485;fill:#FF8F13;}
	.st204{opacity:0.6594;fill:#FF8F13;}
	.st205{opacity:0.6704;fill:#FF8F13;}
	.st206{opacity:0.6814;fill:#FF8F13;}
	.st207{opacity:0.6924;fill:#FF8F13;}
	.st208{opacity:0.7034;fill:#FF8F13;}
	.st209{opacity:0.7144;fill:#FF8F13;}
	.st210{opacity:0.7254;fill:#FF8F13;}
	.st211{opacity:0.7363;fill:#FF8F13;}
	.st212{opacity:0.7473;fill:#FF8F13;}
	.st213{opacity:0.7583;fill:#FF8F13;}
	.st214{opacity:0.7693;fill:#FF8F13;}
	.st215{opacity:0.7803;fill:#FF8F13;}
	.st216{opacity:0.7913;fill:#FF8F13;}
	.st217{opacity:0.8023;fill:#FF8F13;}
	.st218{opacity:0.8132;fill:#FF8F13;}
	.st219{opacity:0.8242;fill:#FF8F13;}
	.st220{opacity:0.8352;fill:#FF8F13;}
	.st221{opacity:0.8462;fill:#FF8F13;}
	.st222{opacity:0.8572;fill:#FF8F13;}
	.st223{opacity:0.8682;fill:#FF8F13;}
	.st224{opacity:0.8792;fill:#FF8F13;}
	.st225{opacity:0.8901;fill:#FF8F13;}
	.st226{opacity:0.9011;fill:#FF8F13;}
	.st227{opacity:0.9121;fill:#FF8F13;}
	.st228{opacity:0.9231;fill:#FF8F13;}
	.st229{opacity:0.9341;fill:#FF8F13;}
	.st230{opacity:0.9451;fill:#FF8F13;}
	.st231{opacity:0.9561;fill:#FF8F13;}
	.st232{opacity:0.967;fill:#FF8F13;}
	.st233{opacity:0.978;fill:#FF8F13;}
	.st234{opacity:0.989;fill:#FF8F13;}
	.st235{clip-path:url(#SVGID_280_);}
	.st236{fill:#FE910E;}
	.st237{clip-path:url(#SVGID_282_);}
	.st238{fill:#8C1690;}
	.st239{clip-path:url(#SVGID_284_);}
	.st240{clip-path:url(#SVGID_286_);}
	.st241{clip-path:url(#SVGID_288_);}
	.st242{fill:#38E490;}
	.st243{clip-path:url(#SVGID_290_);}
	.st244{clip-path:url(#SVGID_290_);fill:#38E490;}
	.st245{clip-path:url(#SVGID_292_);}
	.st246{clip-path:url(#SVGID_292_);fill:#38E490;}
	.st247{clip-path:url(#SVGID_294_);}
	.st248{fill:#DEF0F2;}
	.st249{clip-path:url(#SVGID_296_);}
	.st250{fill:#FDB900;}
	.st251{clip-path:url(#SVGID_298_);}
	.st252{clip-path:url(#SVGID_300_);}
	.st253{clip-path:url(#SVGID_302_);fill:#FEB800;}
	.st254{clip-path:url(#SVGID_302_);}
	.st255{clip-path:url(#SVGID_304_);}
	.st256{clip-path:url(#SVGID_306_);}
	.st257{clip-path:url(#SVGID_308_);fill:#99F58A;}
	.st258{clip-path:url(#SVGID_310_);}
	.st259{fill:#259386;}
	.st260{clip-path:url(#SVGID_312_);fill:#259386;}
	.st261{clip-path:url(#SVGID_314_);}
	.st262{clip-path:url(#SVGID_316_);}
	.st263{clip-path:url(#SVGID_318_);}
	.st264{clip-path:url(#SVGID_320_);fill:#5B1DCA;}
	.st265{clip-path:url(#SVGID_320_);}
	.st266{clip-path:url(#SVGID_322_);}
	.st267{clip-path:url(#SVGID_324_);}
</style>
<rect x="445.6" y="587.1" transform="matrix(-1 -1.224647e-16 1.224647e-16 -1 1027.7047 1310.7115)" class="st61" width="136.5" height="136.5"/>
<rect x="301.4" y="299.2" transform="matrix(-1 -1.224647e-16 1.224647e-16 -1 883.2612 878.8713)" class="st117" width="280.4" height="280.4"/>
<rect x="13.7" y="155.2" transform="matrix(-1 -1.224647e-16 1.224647e-16 -1 307.843 590.8857)" class="st61" width="280.4" height="280.4"/>
<rect x="301.4" y="587.1" transform="matrix(-1 -1.224647e-16 1.224647e-16 -1 739.4066 1310.7115)" class="st64" width="136.5" height="136.5"/>
<rect x="445.3" y="11.3" transform="matrix(-1 -1.224647e-16 1.224647e-16 -1 1027.1157 159.0456)" class="st60" width="136.5" height="136.5"/>
<rect x="301.4" y="11.3" transform="matrix(-1 -1.224647e-16 1.224647e-16 -1 739.4066 159.0456)" class="st58" width="136.5" height="136.5"/>
<rect x="157.6" y="11.3" transform="matrix(-1 -1.224647e-16 1.224647e-16 -1 451.6975 159.0456)" class="st146" width="136.5" height="136.5"/>
<rect x="13.7" y="11.3" transform="matrix(-1 -1.224647e-16 1.224647e-16 -1 163.9884 159.0456)" class="st147" width="136.5" height="136.5"/>
<rect x="13.6" y="443.1" transform="matrix(6.123234e-17 -1 1 6.123234e-17 -429.507 737.2117)" class="st98" width="280.5" height="280.5"/>
<rect x="445.3" y="155.2" transform="matrix(-1 -1.224647e-16 1.224647e-16 -1 1027.1157 447.0312)" class="st148" width="136.5" height="136.5"/>
<rect x="301.4" y="155.2" transform="matrix(-1 -1.224647e-16 1.224647e-16 -1 739.4066 447.0312)" class="st149" width="136.5" height="136.5"/>
<g>
	<defs>
		
			<rect id="SVGID_265_" x="13.7" y="444.1" transform="matrix(-1 -1.224647e-16 1.224647e-16 -1 307.7047 1168.5265)" width="280.4" height="280.4"/>
	</defs>
	<clipPath id="SVGID_2_">
		<use xlink:href="#SVGID_265_"  style="overflow:visible;"/>
	</clipPath>
</g>
<g>
	<defs>
		
			<rect id="SVGID_267_" x="13.7" y="155.2" transform="matrix(-1 -1.224647e-16 1.224647e-16 -1 307.843 590.8857)" width="280.4" height="280.4"/>
	</defs>
	<clipPath id="SVGID_4_">
		<use xlink:href="#SVGID_267_"  style="overflow:visible;"/>
	</clipPath>
</g>
<g>
	<defs>
		
			<rect id="SVGID_269_" x="13.7" y="11.3" transform="matrix(-1 -1.224647e-16 1.224647e-16 -1 163.9884 159.0456)" width="136.5" height="136.5"/>
	</defs>
	<clipPath id="SVGID_6_">
		<use xlink:href="#SVGID_269_"  style="overflow:visible;"/>
	</clipPath>
</g>
<g>
	<g>
		<polygon class="st99" points="481.9,291.2 480.8,229.1 488.3,229.1 487.6,291.2 		"/>
		<polygon class="st99" points="485.3,172.1 482.4,229.1 488.3,229.1 487.4,170.8 		"/>
		<polygon class="st99" points="494,170.4 502.2,172 506.6,228.6 508.2,270.3 506.4,291.2 487.6,291.2 488.3,229.1 487.4,170.8 		
			"/>
		<polygon class="st99" points="502.2,172 506.6,228.6 508.2,270.3 506.4,291.2 510.6,291.2 510.9,259.6 509.5,176.1 		"/>
	</g>
</g>
<g>
	<circle class="st150" cx="414.7" cy="264.2" r="16.8"/>
	<rect x="396.9" y="271" class="st150" width="35.6" height="20.5"/>
	<rect x="396.9" y="273" class="st150" width="35.6" height="1.9"/>
	<rect x="396.9" y="276.9" class="st150" width="35.6" height="1.9"/>
	<rect x="396.9" y="280.8" class="st150" width="35.6" height="1.9"/>
	<rect x="396.9" y="284.7" class="st150" width="35.6" height="1.9"/>
	<rect x="396.9" y="288.5" class="st150" width="35.6" height="2.9"/>
	<circle class="st150" cx="323.7" cy="264.2" r="16.8"/>
	<rect x="305.9" y="271" class="st150" width="35.6" height="20.5"/>
	<rect x="305.9" y="273" class="st150" width="35.6" height="1.9"/>
	<rect x="305.9" y="276.9" class="st150" width="35.6" height="1.9"/>
	<rect x="305.9" y="280.8" class="st150" width="35.6" height="1.9"/>
	<rect x="305.9" y="284.7" class="st150" width="35.6" height="1.9"/>
	<rect x="305.9" y="288.5" class="st150" width="35.6" height="2.9"/>
	<path class="st150" d="M338,255.8v35.6h63.9v-35.6H338z M346.6,285h-3.3v-3.9c0-0.9,0.7-1.8,1.7-1.8c0.5,0,0.9,0.2,1.2,0.6
		c0.3,0.3,0.5,0.8,0.5,1.2V285z M346.6,275.9h-3.3V272c0-0.9,0.7-1.8,1.7-1.8c0.5,0,0.9,0.2,1.2,0.6c0.3,0.3,0.5,0.8,0.5,1.2V275.9z
		 M346.6,266.8h-3.3v-3.9c0-0.9,0.7-1.8,1.7-1.8c0.5,0,0.9,0.2,1.2,0.6c0.3,0.3,0.5,0.8,0.5,1.2V266.8z M353.7,285h-3.4v-3.9
		c0-0.9,0.8-1.8,1.7-1.8c0.5,0,0.9,0.2,1.2,0.6c0.3,0.3,0.5,0.8,0.5,1.2V285z M353.7,275.9h-3.4V272c0-0.9,0.8-1.8,1.7-1.8
		c0.5,0,0.9,0.2,1.2,0.6s0.5,0.8,0.5,1.2V275.9z M353.7,266.8h-3.4v-3.9c0-0.9,0.8-1.8,1.7-1.8c0.5,0,0.9,0.2,1.2,0.6
		c0.3,0.3,0.5,0.8,0.5,1.2V266.8z M360.9,285h-3.4v-3.9c0-0.9,0.8-1.8,1.7-1.8c0.5,0,0.9,0.2,1.2,0.6c0.3,0.3,0.5,0.8,0.5,1.2V285z
		 M360.9,275.9h-3.4V272c0-0.9,0.8-1.8,1.7-1.8c0.5,0,0.9,0.2,1.2,0.6s0.5,0.8,0.5,1.2V275.9z M360.9,266.8h-3.4v-3.9
		c0-0.9,0.8-1.8,1.7-1.8c0.5,0,0.9,0.2,1.2,0.6c0.3,0.3,0.5,0.8,0.5,1.2V266.8z M368,285h-3.3v-3.9c0-0.9,0.7-1.8,1.7-1.8
		c0.5,0,0.9,0.2,1.2,0.6c0.3,0.3,0.5,0.8,0.5,1.2V285z M368,275.9h-3.3V272c0-0.9,0.7-1.8,1.7-1.8c0.5,0,0.9,0.2,1.2,0.6
		c0.3,0.3,0.5,0.8,0.5,1.2V275.9z M368,266.8h-3.3v-3.9c0-0.9,0.7-1.8,1.7-1.8c0.5,0,0.9,0.2,1.2,0.6c0.3,0.3,0.5,0.8,0.5,1.2V266.8
		z M375.1,285h-3.4v-3.9c0-0.9,0.8-1.8,1.7-1.8c0.5,0,0.9,0.2,1.2,0.6c0.3,0.3,0.5,0.8,0.5,1.2V285z M375.1,275.9h-3.4V272
		c0-0.9,0.8-1.8,1.7-1.8c0.5,0,0.9,0.2,1.2,0.6s0.5,0.8,0.5,1.2V275.9z M375.1,266.8h-3.4v-3.9c0-0.9,0.8-1.8,1.7-1.8
		c0.5,0,0.9,0.2,1.2,0.6c0.3,0.3,0.5,0.8,0.5,1.2V266.8z M382.3,285h-3.3v-3.9c0-0.9,0.7-1.8,1.7-1.8c0.5,0,0.9,0.2,1.2,0.6
		c0.3,0.3,0.5,0.8,0.5,1.2V285z M382.3,275.9h-3.3V272c0-0.9,0.7-1.8,1.7-1.8c0.5,0,0.9,0.2,1.2,0.6c0.3,0.3,0.5,0.8,0.5,1.2V275.9z
		 M382.3,266.8h-3.3v-3.9c0-0.9,0.7-1.8,1.7-1.8c0.5,0,0.9,0.2,1.2,0.6c0.3,0.3,0.5,0.8,0.5,1.2V266.8z M389.4,285h-3.4v-3.9
		c0-0.9,0.7-1.8,1.7-1.8c0.5,0,0.9,0.2,1.2,0.6c0.3,0.3,0.5,0.8,0.5,1.2V285z M389.4,275.9h-3.4V272c0-0.9,0.7-1.8,1.7-1.8
		c0.5,0,0.9,0.2,1.2,0.6s0.5,0.8,0.5,1.2V275.9z M389.4,266.8h-3.4v-3.9c0-0.9,0.7-1.8,1.7-1.8c0.5,0,0.9,0.2,1.2,0.6
		c0.3,0.3,0.5,0.8,0.5,1.2V266.8z M396.5,285h-3.4v-3.9c0-0.9,0.8-1.8,1.7-1.8c0.5,0,0.9,0.2,1.2,0.6c0.3,0.3,0.5,0.8,0.5,1.2V285z
		 M396.5,275.9h-3.4V272c0-0.9,0.8-1.8,1.7-1.8c0.5,0,0.9,0.2,1.2,0.6c0.3,0.3,0.5,0.8,0.5,1.2V275.9z M396.5,266.8h-3.4v-3.9
		c0-0.9,0.8-1.8,1.7-1.8c0.5,0,0.9,0.2,1.2,0.6c0.3,0.3,0.5,0.8,0.5,1.2V266.8z"/>
</g>
<g>
	
		<rect x="517.9" y="52.7" transform="matrix(-1 -1.224647e-16 1.224647e-16 -1 1099.6663 200.58)" class="st96" width="63.9" height="95.2"/>
	<g>
		<line class="st151" x1="568.6" y1="140.5" x2="517.9" y2="140.5"/>
		<line class="st151" x1="568.6" y1="138" x2="517.9" y2="138"/>
		<line class="st151" x1="568.6" y1="135.4" x2="517.9" y2="135.4"/>
		<line class="st151" x1="568.6" y1="132.9" x2="517.9" y2="132.9"/>
		<line class="st151" x1="568.7" y1="130.3" x2="517.9" y2="130.3"/>
		<line class="st151" x1="568.7" y1="127.8" x2="517.9" y2="127.8"/>
		<line class="st151" x1="568.7" y1="125.2" x2="517.9" y2="125.2"/>
		<line class="st151" x1="568.7" y1="122.7" x2="517.9" y2="122.7"/>
		<line class="st151" x1="568.7" y1="120.1" x2="517.9" y2="120.1"/>
		<line class="st151" x1="568.7" y1="117.6" x2="517.9" y2="117.6"/>
		<line class="st151" x1="568.7" y1="115" x2="517.9" y2="115"/>
		<line class="st151" x1="568.7" y1="112.5" x2="517.9" y2="112.5"/>
		<line class="st151" x1="568.7" y1="109.9" x2="517.9" y2="109.9"/>
		<line class="st151" x1="568.7" y1="107.4" x2="517.9" y2="107.4"/>
		<line class="st151" x1="568.7" y1="104.8" x2="517.9" y2="104.8"/>
		<line class="st151" x1="568.7" y1="102.3" x2="517.9" y2="102.2"/>
		<line class="st151" x1="568.7" y1="99.7" x2="517.9" y2="99.7"/>
		<line class="st151" x1="568.7" y1="97.2" x2="517.9" y2="97.1"/>
		<line class="st151" x1="568.8" y1="94.6" x2="517.9" y2="94.6"/>
		<line class="st151" x1="568.8" y1="92.1" x2="517.9" y2="92"/>
		<line class="st151" x1="568.8" y1="89.5" x2="517.9" y2="89.5"/>
		<line class="st151" x1="568.8" y1="87" x2="517.9" y2="86.9"/>
		<line class="st151" x1="568.8" y1="84.4" x2="517.9" y2="84.4"/>
		<line class="st151" x1="568.8" y1="81.9" x2="517.9" y2="81.8"/>
		<line class="st151" x1="568.8" y1="79.3" x2="517.9" y2="79.3"/>
		<line class="st151" x1="568.8" y1="76.8" x2="517.9" y2="76.7"/>
		<line class="st151" x1="568.8" y1="74.2" x2="517.9" y2="74.2"/>
		<line class="st151" x1="568.8" y1="71.7" x2="517.9" y2="71.6"/>
		<line class="st151" x1="568.8" y1="69.1" x2="517.9" y2="69.1"/>
		<line class="st151" x1="568.8" y1="66.6" x2="517.9" y2="66.5"/>
		<line class="st151" x1="568.8" y1="64" x2="517.9" y2="64"/>
		<line class="st151" x1="568.9" y1="61.5" x2="517.9" y2="61.4"/>
	</g>
</g>
<g>
	<defs>
		<rect id="SVGID_271_" x="13.6" y="155.2" width="280.5" height="280.5"/>
	</defs>
	<clipPath id="SVGID_8_">
		<use xlink:href="#SVGID_271_"  style="overflow:visible;"/>
	</clipPath>
	<g class="st21">
		<polygon id="XMLID_206_" class="st149" points="151.2,724.6 159.9,724.6 194.2,668.7 185.5,668.7 		"/>
		<polygon id="XMLID_205_" class="st149" points="228.7,724.6 172.3,630.5 162.4,635.4 216.5,724.6 		"/>
		<polygon id="XMLID_204_" class="st149" points="155.5,724.6 146.8,724.6 112.5,668.7 121.2,668.7 		"/>
		<polygon id="XMLID_203_" class="st149" points="78,724.6 134.5,630.5 144.3,635.4 90.2,724.6 		"/>
		<polygon id="XMLID_202_" class="st149" points="156.1,724.6 164.9,724.6 192.9,678.4 188.8,671.6 		"/>
		<polygon id="XMLID_201_" class="st149" points="233.7,724.6 177.2,630.5 171.3,635.4 225.4,724.6 		"/>
		<polygon id="XMLID_200_" class="st149" points="151.6,724.6 142.8,724.6 114.4,677.7 118.7,670.9 		"/>
		<polygon id="XMLID_199_" class="st149" points="74,724.6 130.5,630.5 136.1,635.4 82,724.6 		"/>
		<g>
			<rect id="XMLID_198_" x="158.6" y="386.9" class="st149" width="5.6" height="174.2"/>
			<rect id="XMLID_197_" x="143.3" y="386.9" class="st149" width="5.6" height="174.2"/>
			<rect id="XMLID_196_" x="147.2" y="419.9" class="st149" width="12.6" height="5.9"/>
			<rect id="XMLID_195_" x="147.2" y="447.9" class="st149" width="12.6" height="5.9"/>
			<rect id="XMLID_194_" x="147.2" y="475.9" class="st149" width="12.6" height="5.9"/>
			<rect id="XMLID_193_" x="147.2" y="531.8" class="st149" width="12.6" height="5.9"/>
			<rect id="XMLID_165_" x="147.2" y="503.9" class="st149" width="12.6" height="5.9"/>
			<rect id="XMLID_164_" x="138.8" y="386.9" class="st149" width="5.9" height="174.2"/>
			<rect id="XMLID_163_" x="162.4" y="386.9" class="st149" width="6.3" height="174.2"/>
		</g>
		<rect id="XMLID_162_" x="146.7" y="643.4" class="st149" width="14.1" height="81.3"/>
		<rect id="XMLID_161_" x="153.8" y="643.4" class="st149" width="7" height="81.3"/>
		
			<ellipse id="XMLID_160_" transform="matrix(0.4756 -0.8797 0.8797 0.4756 -448.6513 450.8043)" class="st149" cx="153.8" cy="601.7" rx="45.5" ry="45.5"/>
		<rect id="XMLID_159_" x="147.9" y="294.2" class="st149" width="11.8" height="44.9"/>
		<rect id="XMLID_158_" x="153.8" y="294.2" class="st149" width="5.9" height="44.9"/>
		<rect id="XMLID_157_" x="149.8" y="229.6" class="st149" width="7.9" height="42.3"/>
		<rect id="XMLID_156_" x="151.8" y="182.9" class="st149" width="3.9" height="46.7"/>
		
			<ellipse id="XMLID_155_" transform="matrix(0.7491 -0.6624 0.6624 0.7491 -148.2083 172.6089)" class="st149" cx="153.8" cy="282" rx="13.7" ry="13.7"/>
		<g>
			<defs>
				
					<ellipse id="XMLID_154_" transform="matrix(0.2917 -0.9565 0.9565 0.2917 -243.2085 407.842)" cx="153.8" cy="368.1" rx="32.1" ry="32.1"/>
			</defs>
			<use xlink:href="#XMLID_154_"  style="overflow:visible;fill:#8A188A;"/>
			<clipPath id="XMLID_2_">
				<use xlink:href="#XMLID_154_"  style="overflow:visible;"/>
			</clipPath>
			<rect x="118.1" y="356.2" class="st153" width="68.2" height="23.4"/>
			<g class="st154">
				<g>
					<polygon class="st149" points="119.8,372.8 116.9,377.8 122.6,377.8 					"/>
					<polygon class="st149" points="125.5,372.8 122.6,377.8 128.3,377.8 					"/>
					<polygon class="st149" points="131.2,372.8 128.3,377.8 134,377.8 					"/>
					<polygon class="st149" points="136.9,372.8 134,377.8 139.7,377.8 					"/>
					<polygon class="st149" points="142.6,372.8 139.7,377.8 145.4,377.8 					"/>
					<polygon class="st149" points="148.3,372.8 145.4,377.8 151.1,377.8 					"/>
					<polygon class="st149" points="154,372.8 151.1,377.8 156.9,377.8 					"/>
					<polygon class="st149" points="159.7,372.8 156.9,377.8 162.6,377.8 					"/>
					<polygon class="st149" points="165.4,372.8 162.6,377.8 168.3,377.8 					"/>
					<polygon class="st149" points="171.1,372.8 168.3,377.8 174,377.8 					"/>
					<polygon class="st149" points="176.8,372.8 174,377.8 179.7,377.8 					"/>
					<polygon class="st149" points="182.5,372.8 179.7,377.8 185.4,377.8 					"/>
					<polygon class="st149" points="188.2,372.8 185.4,377.8 191.1,377.8 					"/>
				</g>
				<g>
					<polygon class="st149" points="185.4,377.8 188.2,372.8 182.5,372.8 					"/>
					<polygon class="st149" points="179.7,377.8 182.5,372.8 176.8,372.8 					"/>
					<polygon class="st149" points="174,377.8 176.8,372.8 171.1,372.8 					"/>
					<polygon class="st149" points="168.3,377.8 171.1,372.8 165.4,372.8 					"/>
					<polygon class="st149" points="162.6,377.8 165.4,372.8 159.7,372.8 					"/>
					<polygon class="st149" points="156.9,377.8 159.7,372.8 154,372.8 					"/>
					<polygon class="st149" points="151.1,377.8 154,372.8 148.3,372.8 					"/>
					<polygon class="st149" points="145.4,377.8 148.3,372.8 142.6,372.8 					"/>
					<polygon class="st149" points="139.7,377.8 142.6,372.8 136.9,372.8 					"/>
					<polygon class="st149" points="134,377.8 136.9,372.8 131.2,372.8 					"/>
					<polygon class="st149" points="128.3,377.8 131.2,372.8 125.5,372.8 					"/>
					<polygon class="st149" points="122.6,377.8 125.5,372.8 119.8,372.8 					"/>
					<polygon class="st149" points="116.9,377.8 119.8,372.8 114.1,372.8 					"/>
				</g>
				<g>
					<polygon class="st149" points="122.6,367.9 119.8,372.8 125.5,372.8 					"/>
					<polygon class="st149" points="128.3,367.9 125.5,372.8 131.2,372.8 					"/>
					<polygon class="st149" points="134,367.9 131.2,372.8 136.9,372.8 					"/>
					<polygon class="st149" points="139.7,367.9 136.9,372.8 142.6,372.8 					"/>
					<polygon class="st149" points="145.4,367.9 142.6,372.8 148.3,372.8 					"/>
					<polygon class="st149" points="151.1,367.9 148.3,372.8 154,372.8 					"/>
					<polygon class="st149" points="156.9,367.9 154,372.8 159.7,372.8 					"/>
					<polygon class="st149" points="162.6,367.9 159.7,372.8 165.4,372.8 					"/>
					<polygon class="st149" points="168.3,367.9 165.4,372.8 171.1,372.8 					"/>
					<polygon class="st149" points="174,367.9 171.1,372.8 176.8,372.8 					"/>
					<polygon class="st149" points="179.7,367.9 176.8,372.8 182.5,372.8 					"/>
					<polygon class="st149" points="185.4,367.9 182.5,372.8 188.2,372.8 					"/>
					<polygon class="st149" points="191.1,367.9 188.2,372.8 193.9,372.8 					"/>
				</g>
				<g>
					<polygon class="st149" points="188.2,372.8 191.1,367.9 185.4,367.9 					"/>
					<polygon class="st149" points="182.5,372.8 185.4,367.9 179.7,367.9 					"/>
					<polygon class="st149" points="176.8,372.8 179.7,367.9 174,367.9 					"/>
					<polygon class="st149" points="171.1,372.8 174,367.9 168.3,367.9 					"/>
					<polygon class="st149" points="165.4,372.8 168.3,367.9 162.6,367.9 					"/>
					<polygon class="st149" points="159.7,372.8 162.6,367.9 156.9,367.9 					"/>
					<polygon class="st149" points="154,372.8 156.9,367.9 151.1,367.9 					"/>
					<polygon class="st149" points="148.3,372.8 151.1,367.9 145.4,367.9 					"/>
					<polygon class="st149" points="142.6,372.8 145.4,367.9 139.7,367.9 					"/>
					<polygon class="st149" points="136.9,372.8 139.7,367.9 134,367.9 					"/>
					<polygon class="st149" points="131.2,372.8 134,367.9 128.3,367.9 					"/>
					<polygon class="st149" points="125.5,372.8 128.3,367.9 122.6,367.9 					"/>
					<polygon class="st149" points="119.8,372.8 122.6,367.9 116.9,367.9 					"/>
				</g>
				<g>
					<polygon class="st149" points="119.8,362.9 116.9,367.9 122.6,367.9 					"/>
					<polygon class="st149" points="125.5,362.9 122.6,367.9 128.3,367.9 					"/>
					<polygon class="st149" points="131.2,362.9 128.3,367.9 134,367.9 					"/>
					<polygon class="st149" points="136.9,362.9 134,367.9 139.7,367.9 					"/>
					<polygon class="st149" points="142.6,362.9 139.7,367.9 145.4,367.9 					"/>
					<polygon class="st149" points="148.3,362.9 145.4,367.9 151.1,367.9 					"/>
					<polygon class="st149" points="154,362.9 151.1,367.9 156.9,367.9 					"/>
					<polygon class="st149" points="159.7,362.9 156.9,367.9 162.6,367.9 					"/>
					<polygon class="st149" points="165.4,362.9 162.6,367.9 168.3,367.9 					"/>
					<polygon class="st149" points="171.1,362.9 168.3,367.9 174,367.9 					"/>
					<polygon class="st149" points="176.8,362.9 174,367.9 179.7,367.9 					"/>
					<polygon class="st149" points="182.5,362.9 179.7,367.9 185.4,367.9 					"/>
					<polygon class="st149" points="188.2,362.9 185.4,367.9 191.1,367.9 					"/>
				</g>
				<g>
					<polygon class="st149" points="185.4,367.9 188.2,362.9 182.5,362.9 					"/>
					<polygon class="st149" points="179.7,367.9 182.5,362.9 176.8,362.9 					"/>
					<polygon class="st149" points="174,367.9 176.8,362.9 171.1,362.9 					"/>
					<polygon class="st149" points="168.3,367.9 171.1,362.9 165.4,362.9 					"/>
					<polygon class="st149" points="162.6,367.9 165.4,362.9 159.7,362.9 					"/>
					<polygon class="st149" points="156.9,367.9 159.7,362.9 154,362.9 					"/>
					<polygon class="st149" points="151.1,367.9 154,362.9 148.3,362.9 					"/>
					<polygon class="st149" points="145.4,367.9 148.3,362.9 142.6,362.9 					"/>
					<polygon class="st149" points="139.7,367.9 142.6,362.9 136.9,362.9 					"/>
					<polygon class="st149" points="134,367.9 136.9,362.9 131.2,362.9 					"/>
					<polygon class="st149" points="128.3,367.9 131.2,362.9 125.5,362.9 					"/>
					<polygon class="st149" points="122.6,367.9 125.5,362.9 119.8,362.9 					"/>
					<polygon class="st149" points="116.9,367.9 119.8,362.9 114.1,362.9 					"/>
				</g>
				<g>
					<polygon class="st149" points="122.6,358 119.8,362.9 125.5,362.9 					"/>
					<polygon class="st149" points="128.3,358 125.5,362.9 131.2,362.9 					"/>
					<polygon class="st149" points="134,358 131.2,362.9 136.9,362.9 					"/>
					<polygon class="st149" points="139.7,358 136.9,362.9 142.6,362.9 					"/>
					<polygon class="st149" points="145.4,358 142.6,362.9 148.3,362.9 					"/>
					<polygon class="st149" points="151.1,358 148.3,362.9 154,362.9 					"/>
					<polygon class="st149" points="156.9,358 154,362.9 159.7,362.9 					"/>
					<polygon class="st149" points="162.6,358 159.7,362.9 165.4,362.9 					"/>
					<polygon class="st149" points="168.3,358 165.4,362.9 171.1,362.9 					"/>
					<polygon class="st149" points="174,358 171.1,362.9 176.8,362.9 					"/>
					<polygon class="st149" points="179.7,358 176.8,362.9 182.5,362.9 					"/>
					<polygon class="st149" points="185.4,358 182.5,362.9 188.2,362.9 					"/>
					<polygon class="st149" points="191.1,358 188.2,362.9 193.9,362.9 					"/>
				</g>
				<g>
					<polygon class="st149" points="188.2,362.9 191.1,358 185.4,358 					"/>
					<polygon class="st149" points="119.8,362.9 122.6,358 116.9,358 					"/>
				</g>
			</g>
		</g>
		<g>
			<defs>
				
					<ellipse id="XMLID_153_" transform="matrix(0.4756 -0.8797 0.8797 0.4756 -448.6513 450.8043)" cx="153.8" cy="601.7" rx="45.5" ry="45.5"/>
			</defs>
			<use xlink:href="#XMLID_153_"  style="overflow:visible;fill:#8A188A;"/>
			<clipPath id="XMLID_3_">
				<use xlink:href="#XMLID_153_"  style="overflow:visible;"/>
			</clipPath>
			<rect x="107.1" y="585" class="st155" width="93.5" height="32.7"/>
			<g class="st156">
				<polygon class="st149" points="105.5,608.3 101.5,615.4 109.6,615.4 				"/>
				<polygon class="st149" points="113.6,608.3 109.6,615.4 117.7,615.4 				"/>
				<polygon class="st149" points="121.7,608.3 117.7,615.4 125.8,615.4 				"/>
				<polygon class="st149" points="129.8,608.3 125.8,615.4 133.8,615.4 				"/>
				<polygon class="st149" points="137.9,608.3 133.8,615.4 141.9,615.4 				"/>
				<polygon class="st149" points="146,608.3 141.9,615.4 150,615.4 				"/>
				<polygon class="st149" points="154.1,608.3 150,615.4 158.1,615.4 				"/>
				<polygon class="st149" points="162.2,608.3 158.1,615.4 166.2,615.4 				"/>
				<polygon class="st149" points="170.3,608.3 166.2,615.4 174.3,615.4 				"/>
				<polygon class="st149" points="178.4,608.3 174.3,615.4 182.4,615.4 				"/>
				<polygon class="st149" points="186.5,608.3 182.4,615.4 190.5,615.4 				"/>
				<polygon class="st149" points="194.6,608.3 190.5,615.4 198.6,615.4 				"/>
				<polygon class="st149" points="202.7,608.3 198.6,615.4 206.7,615.4 				"/>
			</g>
			<g class="st156">
				<polygon class="st149" points="109.6,601.3 105.5,608.3 113.6,608.3 				"/>
				<polygon class="st149" points="117.7,601.3 113.6,608.3 121.7,608.3 				"/>
				<polygon class="st149" points="125.8,601.3 121.7,608.3 129.8,608.3 				"/>
				<polygon class="st149" points="133.8,601.3 129.8,608.3 137.9,608.3 				"/>
				<polygon class="st149" points="141.9,601.3 137.9,608.3 146,608.3 				"/>
				<polygon class="st149" points="150,601.3 146,608.3 154.1,608.3 				"/>
				<polygon class="st149" points="158.1,601.3 154.1,608.3 162.2,608.3 				"/>
				<polygon class="st149" points="166.2,601.3 162.2,608.3 170.3,608.3 				"/>
				<polygon class="st149" points="174.3,601.3 170.3,608.3 178.4,608.3 				"/>
				<polygon class="st149" points="182.4,601.3 178.4,608.3 186.5,608.3 				"/>
				<polygon class="st149" points="190.5,601.3 186.5,608.3 194.6,608.3 				"/>
				<polygon class="st149" points="198.6,601.3 194.6,608.3 202.7,608.3 				"/>
				<polygon class="st149" points="206.7,601.3 202.7,608.3 210.8,608.3 				"/>
			</g>
			<g class="st156">
				<polygon class="st149" points="105.5,594.3 101.5,601.3 109.6,601.3 				"/>
				<polygon class="st149" points="113.6,594.3 109.6,601.3 117.7,601.3 				"/>
				<polygon class="st149" points="121.7,594.3 117.7,601.3 125.8,601.3 				"/>
				<polygon class="st149" points="129.8,594.3 125.8,601.3 133.8,601.3 				"/>
				<polygon class="st149" points="137.9,594.3 133.8,601.3 141.9,601.3 				"/>
				<polygon class="st149" points="146,594.3 141.9,601.3 150,601.3 				"/>
				<polygon class="st149" points="154.1,594.3 150,601.3 158.1,601.3 				"/>
				<polygon class="st149" points="162.2,594.3 158.1,601.3 166.2,601.3 				"/>
				<polygon class="st149" points="170.3,594.3 166.2,601.3 174.3,601.3 				"/>
				<polygon class="st149" points="178.4,594.3 174.3,601.3 182.4,601.3 				"/>
				<polygon class="st149" points="186.5,594.3 182.4,601.3 190.5,601.3 				"/>
				<polygon class="st149" points="194.6,594.3 190.5,601.3 198.6,601.3 				"/>
				<polygon class="st149" points="202.7,594.3 198.6,601.3 206.7,601.3 				"/>
			</g>
			<g class="st156">
				<polygon class="st149" points="109.6,587.3 105.5,594.3 113.6,594.3 				"/>
				<polygon class="st149" points="117.7,587.3 113.6,594.3 121.7,594.3 				"/>
				<polygon class="st149" points="125.8,587.3 121.7,594.3 129.8,594.3 				"/>
				<polygon class="st149" points="133.8,587.3 129.8,594.3 137.9,594.3 				"/>
				<polygon class="st149" points="141.9,587.3 137.9,594.3 146,594.3 				"/>
				<polygon class="st149" points="150,587.3 146,594.3 154.1,594.3 				"/>
				<polygon class="st149" points="158.1,587.3 154.1,594.3 162.2,594.3 				"/>
				<polygon class="st149" points="166.2,587.3 162.2,594.3 170.3,594.3 				"/>
				<polygon class="st149" points="174.3,587.3 170.3,594.3 178.4,594.3 				"/>
				<polygon class="st149" points="182.4,587.3 178.4,594.3 186.5,594.3 				"/>
				<polygon class="st149" points="190.5,587.3 186.5,594.3 194.6,594.3 				"/>
				<polygon class="st149" points="198.6,587.3 194.6,594.3 202.7,594.3 				"/>
				<polygon class="st149" points="206.7,587.3 202.7,594.3 210.8,594.3 				"/>
			</g>
			<path class="st155" d="M198.6,615.4l4-7h-8.1L198.6,615.4z M190.5,615.4l4-7h-8.1L190.5,615.4z M182.4,615.4l4-7h-8.1
				L182.4,615.4z M174.3,615.4l4-7h-8.1L174.3,615.4z M166.2,615.4l4-7h-8.1L166.2,615.4z M158.1,615.4l4-7h-8.1L158.1,615.4z
				 M150,615.4l4-7H146L150,615.4z M141.9,615.4l4-7h-8.1L141.9,615.4z M133.8,615.4l4-7h-8.1L133.8,615.4z M125.8,615.4l4-7h-8.1
				L125.8,615.4z M117.7,615.4l4-7h-8.1L117.7,615.4z M109.6,615.4l4-7h-8.1L109.6,615.4z M101.5,615.4l4-7h-8.1L101.5,615.4z
				 M202.7,608.3l4-7h-8.1L202.7,608.3z M190.5,601.3l4,7l4-7H190.5z M182.4,601.3l4,7l4-7H182.4z M174.3,601.3l4,7l4-7H174.3z
				 M166.2,601.3l4,7l4-7H166.2z M158.1,601.3l4,7l4-7H158.1z M150,601.3l4,7l4-7H150z M141.9,601.3l4,7l4-7H141.9z M133.8,601.3
				l4,7l4-7H133.8z M125.8,601.3l4,7l4-7H125.8z M117.7,601.3l4,7l4-7H117.7z M109.6,601.3l4,7l4-7H109.6z M101.5,601.3l4,7l4-7
				H101.5z M198.6,601.3l4-7h-8.1L198.6,601.3z M186.5,594.3l4,7l4-7H186.5z M178.4,594.3l4,7l4-7H178.4z M170.3,594.3l4,7l4-7
				H170.3z M162.2,594.3l4,7l4-7H162.2z M154.1,594.3l4,7l4-7H154.1z M146,594.3l4,7l4-7H146z M137.9,594.3l4,7l4-7H137.9z
				 M129.8,594.3l4,7l4-7H129.8z M121.7,594.3l4,7l4-7H121.7z M113.6,594.3l4,7l4-7H113.6z M113.6,594.3h-8.1l4,7L113.6,594.3z
				 M97.4,594.3l4,7l4-7H97.4z M206.7,587.3h-8.1l4,7L206.7,587.3z M198.6,587.3h-8.1l4,7L198.6,587.3z M190.5,587.3h-8.1l4,7
				L190.5,587.3z M182.4,587.3h-8.1l4,7L182.4,587.3z M174.3,587.3h-8.1l4,7L174.3,587.3z M166.2,587.3h-8.1l4,7L166.2,587.3z
				 M158.1,587.3H150l4,7L158.1,587.3z M150,587.3h-8.1l4,7L150,587.3z M141.9,587.3h-8.1l4,7L141.9,587.3z M133.8,587.3h-8.1l4,7
				L133.8,587.3z M125.8,587.3h-8.1l4,7L125.8,587.3z M117.7,587.3h-8.1l4,7L117.7,587.3z M101.5,587.3l4,7l4-7H101.5z"/>
		</g>
	</g>
</g>
<g>
	<defs>
		<rect id="SVGID_273_" x="13.7" y="444.1" width="280.4" height="280.4"/>
	</defs>
	<clipPath id="SVGID_10_">
		<use xlink:href="#SVGID_273_"  style="overflow:visible;"/>
	</clipPath>
	<g class="st23">
		<polygon id="XMLID_152_" class="st100" points="151.3,725.5 160,725.5 194.4,669.6 185.6,669.6 		"/>
		<polygon id="XMLID_151_" class="st100" points="228.9,725.5 172.4,631.4 162.6,636.3 216.7,725.5 		"/>
		<polygon id="XMLID_150_" class="st100" points="155.7,725.5 146.9,725.5 112.6,669.6 121.4,669.6 		"/>
		<polygon id="XMLID_149_" class="st100" points="78.1,725.5 134.6,631.4 144.4,636.3 90.3,725.5 		"/>
		<polygon id="XMLID_148_" class="st100" points="156.3,725.5 165,725.5 193,679.3 189,672.5 		"/>
		<polygon id="XMLID_147_" class="st100" points="233.8,725.5 177.3,631.4 171.4,636.3 225.5,725.5 		"/>
		<polygon id="XMLID_146_" class="st100" points="151.7,725.5 143,725.5 114.5,678.6 118.9,671.8 		"/>
		<polygon id="XMLID_145_" class="st100" points="74.2,725.5 130.6,631.4 136.2,636.3 82.1,725.5 		"/>
		<g>
			<rect id="XMLID_144_" x="158.8" y="387.8" class="st100" width="5.6" height="174.2"/>
			<rect id="XMLID_143_" x="143.4" y="387.8" class="st100" width="5.6" height="174.2"/>
			<rect id="XMLID_142_" x="147.4" y="420.8" class="st100" width="12.6" height="5.9"/>
			<rect id="XMLID_141_" x="147.4" y="448.8" class="st100" width="12.6" height="5.9"/>
			<rect id="XMLID_140_" x="147.4" y="476.8" class="st100" width="12.6" height="5.9"/>
			<rect id="XMLID_139_" x="147.4" y="532.7" class="st100" width="12.6" height="5.9"/>
			<rect id="XMLID_138_" x="147.4" y="504.8" class="st100" width="12.6" height="5.9"/>
			<rect id="XMLID_137_" x="139" y="387.8" class="st100" width="5.9" height="174.2"/>
			<rect id="XMLID_136_" x="162.5" y="387.8" class="st100" width="6.3" height="174.2"/>
		</g>
		<rect id="XMLID_135_" x="146.9" y="644.3" class="st100" width="14.1" height="81.3"/>
		<rect id="XMLID_107_" x="153.9" y="644.3" class="st100" width="7" height="81.3"/>
		
			<ellipse id="XMLID_106_" transform="matrix(0.4756 -0.8797 0.8797 0.4756 -449.3756 451.3972)" class="st100" cx="153.9" cy="602.6" rx="45.5" ry="45.5"/>
		<rect id="XMLID_105_" x="148" y="295.2" class="st100" width="11.8" height="44.9"/>
		<rect id="XMLID_104_" x="153.9" y="295.2" class="st100" width="5.9" height="44.9"/>
		<rect id="XMLID_103_" x="150" y="230.5" class="st100" width="7.9" height="42.3"/>
		<rect id="XMLID_102_" x="151.9" y="183.8" class="st100" width="3.9" height="46.7"/>
		
			<ellipse id="XMLID_101_" transform="matrix(0.7491 -0.6624 0.6624 0.7491 -148.7731 172.9252)" class="st100" cx="153.9" cy="282.9" rx="13.7" ry="13.7"/>
		<g>
			<defs>
				
					<ellipse id="XMLID_100_" transform="matrix(0.2917 -0.9565 0.9565 0.2917 -243.9773 408.6115)" cx="153.9" cy="369" rx="32.1" ry="32.1"/>
			</defs>
			<use xlink:href="#XMLID_100_"  style="overflow:visible;fill:#FF8F15;"/>
			<clipPath id="XMLID_4_">
				<use xlink:href="#XMLID_100_"  style="overflow:visible;"/>
			</clipPath>
			<rect x="118.2" y="357.1" class="st158" width="68.2" height="23.4"/>
			<g class="st159">
				<g>
					<polygon class="st100" points="119.9,373.7 117,378.7 122.7,378.7 					"/>
					<polygon class="st100" points="125.6,373.7 122.7,378.7 128.5,378.7 					"/>
					<polygon class="st100" points="131.3,373.7 128.5,378.7 134.2,378.7 					"/>
					<polygon class="st100" points="137,373.7 134.2,378.7 139.9,378.7 					"/>
					<polygon class="st100" points="142.7,373.7 139.9,378.7 145.6,378.7 					"/>
					<polygon class="st100" points="148.4,373.7 145.6,378.7 151.3,378.7 					"/>
					<polygon class="st100" points="154.1,373.7 151.3,378.7 157,378.7 					"/>
					<polygon class="st100" points="159.8,373.7 157,378.7 162.7,378.7 					"/>
					<polygon class="st100" points="165.5,373.7 162.7,378.7 168.4,378.7 					"/>
					<polygon class="st100" points="171.3,373.7 168.4,378.7 174.1,378.7 					"/>
					<polygon class="st100" points="177,373.7 174.1,378.7 179.8,378.7 					"/>
					<polygon class="st100" points="182.7,373.7 179.8,378.7 185.5,378.7 					"/>
					<polygon class="st100" points="188.4,373.7 185.5,378.7 191.2,378.7 					"/>
				</g>
				<g>
					<polygon class="st100" points="185.5,378.7 188.4,373.7 182.7,373.7 					"/>
					<polygon class="st100" points="179.8,378.7 182.7,373.7 177,373.7 					"/>
					<polygon class="st100" points="174.1,378.7 177,373.7 171.3,373.7 					"/>
					<polygon class="st100" points="168.4,378.7 171.3,373.7 165.5,373.7 					"/>
					<polygon class="st100" points="162.7,378.7 165.5,373.7 159.8,373.7 					"/>
					<polygon class="st100" points="157,378.7 159.8,373.7 154.1,373.7 					"/>
					<polygon class="st100" points="151.3,378.7 154.1,373.7 148.4,373.7 					"/>
					<polygon class="st100" points="145.6,378.7 148.4,373.7 142.7,373.7 					"/>
					<polygon class="st100" points="139.9,378.7 142.7,373.7 137,373.7 					"/>
					<polygon class="st100" points="134.2,378.7 137,373.7 131.3,373.7 					"/>
					<polygon class="st100" points="128.5,378.7 131.3,373.7 125.6,373.7 					"/>
					<polygon class="st100" points="122.7,378.7 125.6,373.7 119.9,373.7 					"/>
					<polygon class="st100" points="117,378.7 119.9,373.7 114.2,373.7 					"/>
				</g>
				<g>
					<polygon class="st100" points="122.7,368.8 119.9,373.7 125.6,373.7 					"/>
					<polygon class="st100" points="128.5,368.8 125.6,373.7 131.3,373.7 					"/>
					<polygon class="st100" points="134.2,368.8 131.3,373.7 137,373.7 					"/>
					<polygon class="st100" points="139.9,368.8 137,373.7 142.7,373.7 					"/>
					<polygon class="st100" points="145.6,368.8 142.7,373.7 148.4,373.7 					"/>
					<polygon class="st100" points="151.3,368.8 148.4,373.7 154.1,373.7 					"/>
					<polygon class="st100" points="157,368.8 154.1,373.7 159.8,373.7 					"/>
					<polygon class="st100" points="162.7,368.8 159.8,373.7 165.5,373.7 					"/>
					<polygon class="st100" points="168.4,368.8 165.5,373.7 171.3,373.7 					"/>
					<polygon class="st100" points="174.1,368.8 171.3,373.7 177,373.7 					"/>
					<polygon class="st100" points="179.8,368.8 177,373.7 182.7,373.7 					"/>
					<polygon class="st100" points="185.5,368.8 182.7,373.7 188.4,373.7 					"/>
					<polygon class="st100" points="191.2,368.8 188.4,373.7 194.1,373.7 					"/>
				</g>
				<g>
					<polygon class="st100" points="188.4,373.7 191.2,368.8 185.5,368.8 					"/>
					<polygon class="st100" points="182.7,373.7 185.5,368.8 179.8,368.8 					"/>
					<polygon class="st100" points="177,373.7 179.8,368.8 174.1,368.8 					"/>
					<polygon class="st100" points="171.3,373.7 174.1,368.8 168.4,368.8 					"/>
					<polygon class="st100" points="165.5,373.7 168.4,368.8 162.7,368.8 					"/>
					<polygon class="st100" points="159.8,373.7 162.7,368.8 157,368.8 					"/>
					<polygon class="st100" points="154.1,373.7 157,368.8 151.3,368.8 					"/>
					<polygon class="st100" points="148.4,373.7 151.3,368.8 145.6,368.8 					"/>
					<polygon class="st100" points="142.7,373.7 145.6,368.8 139.9,368.8 					"/>
					<polygon class="st100" points="137,373.7 139.9,368.8 134.2,368.8 					"/>
					<polygon class="st100" points="131.3,373.7 134.2,368.8 128.5,368.8 					"/>
					<polygon class="st100" points="125.6,373.7 128.5,368.8 122.7,368.8 					"/>
					<polygon class="st100" points="119.9,373.7 122.7,368.8 117,368.8 					"/>
				</g>
				<g>
					<polygon class="st100" points="119.9,363.8 117,368.8 122.7,368.8 					"/>
					<polygon class="st100" points="125.6,363.8 122.7,368.8 128.5,368.8 					"/>
					<polygon class="st100" points="131.3,363.8 128.5,368.8 134.2,368.8 					"/>
					<polygon class="st100" points="137,363.8 134.2,368.8 139.9,368.8 					"/>
					<polygon class="st100" points="142.7,363.8 139.9,368.8 145.6,368.8 					"/>
					<polygon class="st100" points="148.4,363.8 145.6,368.8 151.3,368.8 					"/>
					<polygon class="st100" points="154.1,363.8 151.3,368.8 157,368.8 					"/>
					<polygon class="st100" points="159.8,363.8 157,368.8 162.7,368.8 					"/>
					<polygon class="st100" points="165.5,363.8 162.7,368.8 168.4,368.8 					"/>
					<polygon class="st100" points="171.3,363.8 168.4,368.8 174.1,368.8 					"/>
					<polygon class="st100" points="177,363.8 174.1,368.8 179.8,368.8 					"/>
					<polygon class="st100" points="182.7,363.8 179.8,368.8 185.5,368.8 					"/>
					<polygon class="st100" points="188.4,363.8 185.5,368.8 191.2,368.8 					"/>
				</g>
				<g>
					<polygon class="st100" points="185.5,368.8 188.4,363.8 182.7,363.8 					"/>
					<polygon class="st100" points="179.8,368.8 182.7,363.8 177,363.8 					"/>
					<polygon class="st100" points="174.1,368.8 177,363.8 171.3,363.8 					"/>
					<polygon class="st100" points="168.4,368.8 171.3,363.8 165.5,363.8 					"/>
					<polygon class="st100" points="162.7,368.8 165.5,363.8 159.8,363.8 					"/>
					<polygon class="st100" points="157,368.8 159.8,363.8 154.1,363.8 					"/>
					<polygon class="st100" points="151.3,368.8 154.1,363.8 148.4,363.8 					"/>
					<polygon class="st100" points="145.6,368.8 148.4,363.8 142.7,363.8 					"/>
					<polygon class="st100" points="139.9,368.8 142.7,363.8 137,363.8 					"/>
					<polygon class="st100" points="134.2,368.8 137,363.8 131.3,363.8 					"/>
					<polygon class="st100" points="128.5,368.8 131.3,363.8 125.6,363.8 					"/>
					<polygon class="st100" points="122.7,368.8 125.6,363.8 119.9,363.8 					"/>
					<polygon class="st100" points="117,368.8 119.9,363.8 114.2,363.8 					"/>
				</g>
				<g>
					<polygon class="st100" points="122.7,358.9 119.9,363.8 125.6,363.8 					"/>
					<polygon class="st100" points="128.5,358.9 125.6,363.8 131.3,363.8 					"/>
					<polygon class="st100" points="134.2,358.9 131.3,363.8 137,363.8 					"/>
					<polygon class="st100" points="139.9,358.9 137,363.8 142.7,363.8 					"/>
					<polygon class="st100" points="145.6,358.9 142.7,363.8 148.4,363.8 					"/>
					<polygon class="st100" points="151.3,358.9 148.4,363.8 154.1,363.8 					"/>
					<polygon class="st100" points="157,358.9 154.1,363.8 159.8,363.8 					"/>
					<polygon class="st100" points="162.7,358.9 159.8,363.8 165.5,363.8 					"/>
					<polygon class="st100" points="168.4,358.9 165.5,363.8 171.3,363.8 					"/>
					<polygon class="st100" points="174.1,358.9 171.3,363.8 177,363.8 					"/>
					<polygon class="st100" points="179.8,358.9 177,363.8 182.7,363.8 					"/>
					<polygon class="st100" points="185.5,358.9 182.7,363.8 188.4,363.8 					"/>
					<polygon class="st100" points="191.2,358.9 188.4,363.8 194.1,363.8 					"/>
				</g>
				<g>
					<polygon class="st100" points="188.4,363.8 191.2,358.9 185.5,358.9 					"/>
					<polygon class="st100" points="119.9,363.8 122.7,358.9 117,358.9 					"/>
				</g>
			</g>
		</g>
		<g>
			<defs>
				
					<ellipse id="XMLID_99_" transform="matrix(0.4756 -0.8797 0.8797 0.4756 -449.3756 451.3972)" cx="153.9" cy="602.6" rx="45.5" ry="45.5"/>
			</defs>
			<use xlink:href="#XMLID_99_"  style="overflow:visible;fill:#FF8F15;"/>
			<clipPath id="XMLID_5_">
				<use xlink:href="#XMLID_99_"  style="overflow:visible;"/>
			</clipPath>
			<rect x="107.2" y="585.9" class="st160" width="93.5" height="32.7"/>
			<g class="st161">
				<polygon class="st100" points="105.6,609.2 101.6,616.3 109.7,616.3 				"/>
				<polygon class="st100" points="113.7,609.2 109.7,616.3 117.8,616.3 				"/>
				<polygon class="st100" points="121.8,609.2 117.8,616.3 125.9,616.3 				"/>
				<polygon class="st100" points="129.9,609.2 125.9,616.3 134,616.3 				"/>
				<polygon class="st100" points="138,609.2 134,616.3 142.1,616.3 				"/>
				<polygon class="st100" points="146.1,609.2 142.1,616.3 150.2,616.3 				"/>
				<polygon class="st100" points="154.2,609.2 150.2,616.3 158.3,616.3 				"/>
				<polygon class="st100" points="162.3,609.2 158.3,616.3 166.4,616.3 				"/>
				<polygon class="st100" points="170.4,609.2 166.4,616.3 174.5,616.3 				"/>
				<polygon class="st100" points="178.5,609.2 174.5,616.3 182.6,616.3 				"/>
				<polygon class="st100" points="186.6,609.2 182.6,616.3 190.7,616.3 				"/>
				<polygon class="st100" points="194.7,609.2 190.7,616.3 198.8,616.3 				"/>
				<polygon class="st100" points="202.8,609.2 198.8,616.3 206.9,616.3 				"/>
			</g>
			<g class="st161">
				<polygon class="st100" points="109.7,602.2 105.6,609.2 113.7,609.2 				"/>
				<polygon class="st100" points="117.8,602.2 113.7,609.2 121.8,609.2 				"/>
				<polygon class="st100" points="125.9,602.2 121.8,609.2 129.9,609.2 				"/>
				<polygon class="st100" points="134,602.2 129.9,609.2 138,609.2 				"/>
				<polygon class="st100" points="142.1,602.2 138,609.2 146.1,609.2 				"/>
				<polygon class="st100" points="150.2,602.2 146.1,609.2 154.2,609.2 				"/>
				<polygon class="st100" points="158.3,602.2 154.2,609.2 162.3,609.2 				"/>
				<polygon class="st100" points="166.4,602.2 162.3,609.2 170.4,609.2 				"/>
				<polygon class="st100" points="174.5,602.2 170.4,609.2 178.5,609.2 				"/>
				<polygon class="st100" points="182.6,602.2 178.5,609.2 186.6,609.2 				"/>
				<polygon class="st100" points="190.7,602.2 186.6,609.2 194.7,609.2 				"/>
				<polygon class="st100" points="198.8,602.2 194.7,609.2 202.8,609.2 				"/>
				<polygon class="st100" points="206.9,602.2 202.8,609.2 210.9,609.2 				"/>
			</g>
			<g class="st161">
				<polygon class="st100" points="105.6,595.2 101.6,602.2 109.7,602.2 				"/>
				<polygon class="st100" points="113.7,595.2 109.7,602.2 117.8,602.2 				"/>
				<polygon class="st100" points="121.8,595.2 117.8,602.2 125.9,602.2 				"/>
				<polygon class="st100" points="129.9,595.2 125.9,602.2 134,602.2 				"/>
				<polygon class="st100" points="138,595.2 134,602.2 142.1,602.2 				"/>
				<polygon class="st100" points="146.1,595.2 142.1,602.2 150.2,602.2 				"/>
				<polygon class="st100" points="154.2,595.2 150.2,602.2 158.3,602.2 				"/>
				<polygon class="st100" points="162.3,595.2 158.3,602.2 166.4,602.2 				"/>
				<polygon class="st100" points="170.4,595.2 166.4,602.2 174.5,602.2 				"/>
				<polygon class="st100" points="178.5,595.2 174.5,602.2 182.6,602.2 				"/>
				<polygon class="st100" points="186.6,595.2 182.6,602.2 190.7,602.2 				"/>
				<polygon class="st100" points="194.7,595.2 190.7,602.2 198.8,602.2 				"/>
				<polygon class="st100" points="202.8,595.2 198.8,602.2 206.9,602.2 				"/>
			</g>
			<g class="st161">
				<polygon class="st100" points="109.7,588.2 105.6,595.2 113.7,595.2 				"/>
				<polygon class="st100" points="117.8,588.2 113.7,595.2 121.8,595.2 				"/>
				<polygon class="st100" points="125.9,588.2 121.8,595.2 129.9,595.2 				"/>
				<polygon class="st100" points="134,588.2 129.9,595.2 138,595.2 				"/>
				<polygon class="st100" points="142.1,588.2 138,595.2 146.1,595.2 				"/>
				<polygon class="st100" points="150.2,588.2 146.1,595.2 154.2,595.2 				"/>
				<polygon class="st100" points="158.3,588.2 154.2,595.2 162.3,595.2 				"/>
				<polygon class="st100" points="166.4,588.2 162.3,595.2 170.4,595.2 				"/>
				<polygon class="st100" points="174.5,588.2 170.4,595.2 178.5,595.2 				"/>
				<polygon class="st100" points="182.6,588.2 178.5,595.2 186.6,595.2 				"/>
				<polygon class="st100" points="190.7,588.2 186.6,595.2 194.7,595.2 				"/>
				<polygon class="st100" points="198.8,588.2 194.7,595.2 202.8,595.2 				"/>
				<polygon class="st100" points="206.9,588.2 202.8,595.2 210.9,595.2 				"/>
			</g>
			<path class="st160" d="M198.8,616.3l4-7h-8.1L198.8,616.3z M190.7,616.3l4-7h-8.1L190.7,616.3z M182.6,616.3l4-7h-8.1
				L182.6,616.3z M174.5,616.3l4-7h-8.1L174.5,616.3z M166.4,616.3l4-7h-8.1L166.4,616.3z M158.3,616.3l4-7h-8.1L158.3,616.3z
				 M150.2,616.3l4-7h-8.1L150.2,616.3z M142.1,616.3l4-7H138L142.1,616.3z M134,616.3l4-7h-8.1L134,616.3z M125.9,616.3l4-7h-8.1
				L125.9,616.3z M117.8,616.3l4-7h-8.1L117.8,616.3z M109.7,616.3l4-7h-8.1L109.7,616.3z M101.6,616.3l4-7h-8.1L101.6,616.3z
				 M202.8,609.2l4-7h-8.1L202.8,609.2z M190.7,602.2l4,7l4-7H190.7z M182.6,602.2l4,7l4-7H182.6z M174.5,602.2l4,7l4-7H174.5z
				 M166.4,602.2l4,7l4-7H166.4z M158.3,602.2l4,7l4-7H158.3z M150.2,602.2l4,7l4-7H150.2z M142.1,602.2l4,7l4-7H142.1z M134,602.2
				l4,7l4-7H134z M125.9,602.2l4,7l4-7H125.9z M117.8,602.2l4,7l4-7H117.8z M109.7,602.2l4,7l4-7H109.7z M101.6,602.2l4,7l4-7H101.6
				z M198.8,602.2l4-7h-8.1L198.8,602.2z M186.6,595.2l4,7l4-7H186.6z M178.5,595.2l4,7l4-7H178.5z M170.4,595.2l4,7l4-7H170.4z
				 M162.3,595.2l4,7l4-7H162.3z M154.2,595.2l4,7l4-7H154.2z M146.1,595.2l4,7l4-7H146.1z M138,595.2l4,7l4-7H138z M129.9,595.2
				l4,7l4-7H129.9z M121.8,595.2l4,7l4-7H121.8z M113.7,595.2l4,7l4-7H113.7z M113.7,595.2h-8.1l4,7L113.7,595.2z M97.5,595.2l4,7
				l4-7H97.5z M206.9,588.2h-8.1l4,7L206.9,588.2z M198.8,588.2h-8.1l4,7L198.8,588.2z M190.7,588.2h-8.1l4,7L190.7,588.2z
				 M182.6,588.2h-8.1l4,7L182.6,588.2z M174.5,588.2h-8.1l4,7L174.5,588.2z M166.4,588.2h-8.1l4,7L166.4,588.2z M158.3,588.2h-8.1
				l4,7L158.3,588.2z M150.2,588.2h-8.1l4,7L150.2,588.2z M142.1,588.2H134l4,7L142.1,588.2z M134,588.2h-8.1l4,7L134,588.2z
				 M125.9,588.2h-8.1l4,7L125.9,588.2z M117.8,588.2h-8.1l4,7L117.8,588.2z M101.6,588.2l4,7l4-7H101.6z"/>
		</g>
	</g>
</g>
<g>
	<defs>
		
			<rect id="SVGID_275_" x="301.4" y="587.1" transform="matrix(-1 -1.224647e-16 1.224647e-16 -1 739.4066 1310.7115)" width="136.5" height="136.5"/>
	</defs>
	<clipPath id="SVGID_12_">
		<use xlink:href="#SVGID_275_"  style="overflow:visible;"/>
	</clipPath>
	<g style="clip-path:url(#SVGID_12_);">
		<g>
			<polygon class="st139" points="346.5,785 346.5,908.9 377.5,908.9 379.5,604.2 			"/>
			<path class="st139" d="M334.4,617c-0.3,78.9-3.1,162.1-3.1,291.9h15.3l1.6-81.3L334.4,617z"/>
			<path class="st139" d="M334.4,617c2.2,75.9,2.2,111.5,13.8,210.6c11-70.6,25.7-136.4,31.4-223.4L334.4,617z M342.9,649.8
				l-2.1-23.4l30.6-8.6l-3.1,26L342.9,649.8z"/>
			<polygon class="st139" points="371.5,621.4 343.3,629 345.5,649.2 342.9,649.8 340.9,626.4 371.5,617.8 			"/>
			<path class="st139" d="M379.5,604.2l1.8,1.9c0,0,3.9,90.6,3.9,302.8h-10.4L379.5,604.2z"/>
		</g>
		<g>
			<defs>
				<path id="SVGID_277_" d="M334.4,617c0,72.1-4.4,207.6-3.1,291.9h43.5c3.3-84.3,1.9-217.6,4.8-304.7L334.4,617z M342.9,649.8
					l-2.1-23.4l30.6-8.6l-3.1,26L342.9,649.8z"/>
			</defs>
			<use xlink:href="#SVGID_277_"  style="overflow:visible;fill:#FF8F13;"/>
			<clipPath id="SVGID_14_">
				<use xlink:href="#SVGID_277_"  style="overflow:visible;"/>
			</clipPath>
			<g class="st27">
				<line class="st164" x1="334.6" y1="621.6" x2="379.4" y2="607.6"/>
				<line class="st165" x1="334.5" y1="625.6" x2="379.6" y2="611.8"/>
				<line class="st166" x1="334.5" y1="629.7" x2="379.7" y2="616.1"/>
				<line class="st167" x1="334.4" y1="633.7" x2="379.8" y2="620.3"/>
				<line class="st168" x1="334.4" y1="637.8" x2="380" y2="624.6"/>
				<line class="st169" x1="334.4" y1="641.8" x2="380.1" y2="628.8"/>
				<line class="st170" x1="334.3" y1="645.8" x2="380.3" y2="633"/>
				<line class="st171" x1="334.3" y1="649.9" x2="380.4" y2="637.3"/>
				<line class="st172" x1="334.2" y1="653.9" x2="380.6" y2="641.5"/>
				<line class="st173" x1="334.2" y1="658" x2="380.7" y2="645.8"/>
				<line class="st174" x1="334.1" y1="662" x2="380.9" y2="650"/>
				<line class="st175" x1="334.1" y1="666.1" x2="381" y2="654.3"/>
				<line class="st176" x1="334" y1="670.1" x2="381.2" y2="658.5"/>
				<line class="st177" x1="334" y1="674.2" x2="381.3" y2="662.7"/>
				<line class="st178" x1="333.9" y1="678.2" x2="381.4" y2="667"/>
				<line class="st179" x1="333.9" y1="682.3" x2="381.6" y2="671.2"/>
				<line class="st180" x1="333.9" y1="686.3" x2="381.7" y2="675.5"/>
				<line class="st181" x1="333.8" y1="690.4" x2="381.9" y2="679.7"/>
				<line class="st182" x1="333.8" y1="694.4" x2="382" y2="684"/>
				<line class="st183" x1="333.7" y1="698.5" x2="382.2" y2="688.2"/>
				<line class="st184" x1="333.7" y1="702.5" x2="382.3" y2="692.5"/>
				<line class="st185" x1="333.6" y1="706.6" x2="382.5" y2="696.7"/>
				<line class="st186" x1="333.6" y1="710.6" x2="382.6" y2="700.9"/>
				<line class="st187" x1="333.5" y1="714.6" x2="382.8" y2="705.2"/>
				<line class="st188" x1="333.5" y1="718.7" x2="382.9" y2="709.4"/>
				<line class="st189" x1="333.4" y1="722.7" x2="383.1" y2="713.7"/>
				<line class="st190" x1="333.4" y1="726.8" x2="383.2" y2="717.9"/>
				<line class="st191" x1="333.3" y1="730.8" x2="383.3" y2="722.2"/>
				<line class="st192" x1="333.3" y1="734.9" x2="383.5" y2="726.4"/>
				<line class="st193" x1="333.3" y1="738.9" x2="383.6" y2="730.7"/>
				<line class="st194" x1="333.2" y1="743" x2="383.8" y2="734.9"/>
			</g>
		</g>
	</g>
</g>
<g>
	<defs>
		
			<rect id="SVGID_279_" x="445.6" y="587.1" transform="matrix(-1 -1.224647e-16 1.224647e-16 -1 1027.7047 1310.7115)" width="136.5" height="136.5"/>
	</defs>
	<clipPath id="SVGID_16_">
		<use xlink:href="#SVGID_279_"  style="overflow:visible;"/>
	</clipPath>
	<g class="st29">
		<circle class="st236" cx="515.2" cy="659.8" r="39"/>
		<rect x="473.8" y="675.6" class="st236" width="82.8" height="47.6"/>
		<rect x="473.8" y="680.3" class="st236" width="82.8" height="4.4"/>
		<rect x="473.8" y="689.3" class="st236" width="82.8" height="4.4"/>
		<rect x="473.8" y="698.4" class="st236" width="82.8" height="4.4"/>
		<rect x="473.8" y="707.4" class="st236" width="82.8" height="4.4"/>
		<rect x="473.8" y="716.4" class="st236" width="82.8" height="6.8"/>
		<path class="st236" d="M548.3,640.3v82.8H697v-82.8H548.3z M568.4,708.1h-7.8V699c0-2.2,1.7-4.2,3.9-4.2c1.1,0,2.1,0.5,2.7,1.3
			c0.7,0.8,1.1,1.8,1.1,2.9V708.1z M568.4,687h-7.8v-9.1c0-2.2,1.7-4.2,3.9-4.2c1.1,0,2.1,0.5,2.7,1.3c0.7,0.8,1.1,1.8,1.1,2.9V687z
			 M568.4,665.9h-7.8v-9.1c0-2.2,1.7-4.2,3.9-4.2c1.1,0,2.1,0.5,2.7,1.3c0.7,0.8,1.1,1.8,1.1,2.9V665.9z M585,708.1h-7.8V699
			c0-2.2,1.8-4.2,3.9-4.2c1.1,0,2.1,0.5,2.8,1.3c0.7,0.8,1.1,1.8,1.1,2.9V708.1z M585,687h-7.8v-9.1c0-2.2,1.8-4.2,3.9-4.2
			c1.1,0,2.1,0.5,2.8,1.3c0.7,0.8,1.1,1.8,1.1,2.9V687z M585,665.9h-7.8v-9.1c0-2.2,1.8-4.2,3.9-4.2c1.1,0,2.1,0.5,2.8,1.3
			c0.7,0.8,1.1,1.8,1.1,2.9V665.9z M601.6,708.1h-7.8V699c0-2.2,1.8-4.2,3.9-4.2c1.1,0,2,0.5,2.7,1.3c0.7,0.8,1.1,1.8,1.1,2.9V708.1
			z M601.6,687h-7.8v-9.1c0-2.2,1.8-4.2,3.9-4.2c1.1,0,2,0.5,2.7,1.3s1.1,1.8,1.1,2.9V687z M601.6,665.9h-7.8v-9.1
			c0-2.2,1.8-4.2,3.9-4.2c1.1,0,2,0.5,2.7,1.3c0.7,0.8,1.1,1.8,1.1,2.9V665.9z M618.2,708.1h-7.8V699c0-2.2,1.7-4.2,3.9-4.2
			c1.1,0,2,0.5,2.7,1.3c0.7,0.8,1.1,1.8,1.1,2.9V708.1z M618.2,687h-7.8v-9.1c0-2.2,1.7-4.2,3.9-4.2c1.1,0,2,0.5,2.7,1.3
			c0.7,0.8,1.1,1.8,1.1,2.9V687z M618.2,665.9h-7.8v-9.1c0-2.2,1.7-4.2,3.9-4.2c1.1,0,2,0.5,2.7,1.3c0.7,0.8,1.1,1.8,1.1,2.9V665.9z
			 M634.8,708.1H627V699c0-2.2,1.8-4.2,3.9-4.2c1.1,0,2,0.5,2.7,1.3c0.7,0.8,1.1,1.8,1.1,2.9V708.1z M634.8,687H627v-9.1
			c0-2.2,1.8-4.2,3.9-4.2c1.1,0,2,0.5,2.7,1.3c0.7,0.8,1.1,1.8,1.1,2.9V687z M634.8,665.9H627v-9.1c0-2.2,1.8-4.2,3.9-4.2
			c1.1,0,2,0.5,2.7,1.3c0.7,0.8,1.1,1.8,1.1,2.9V665.9z M651.4,708.1h-7.8V699c0-2.2,1.7-4.2,3.9-4.2c1.1,0,2.1,0.5,2.7,1.3
			c0.7,0.8,1.1,1.8,1.1,2.9V708.1z M651.4,687h-7.8v-9.1c0-2.2,1.7-4.2,3.9-4.2c1.1,0,2.1,0.5,2.7,1.3c0.7,0.8,1.1,1.8,1.1,2.9V687z
			 M651.4,665.9h-7.8v-9.1c0-2.2,1.7-4.2,3.9-4.2c1.1,0,2.1,0.5,2.7,1.3c0.7,0.8,1.1,1.8,1.1,2.9V665.9z M668,708.1h-7.8V699
			c0-2.2,1.7-4.2,3.9-4.2c1.1,0,2.1,0.5,2.8,1.3c0.7,0.8,1.1,1.8,1.1,2.9V708.1z M668,687h-7.8v-9.1c0-2.2,1.7-4.2,3.9-4.2
			c1.1,0,2.1,0.5,2.8,1.3c0.7,0.8,1.1,1.8,1.1,2.9V687z M668,665.9h-7.8v-9.1c0-2.2,1.7-4.2,3.9-4.2c1.1,0,2.1,0.5,2.8,1.3
			c0.7,0.8,1.1,1.8,1.1,2.9V665.9z M684.5,708.1h-7.8V699c0-2.2,1.8-4.2,3.9-4.2c1.1,0,2,0.5,2.7,1.3c0.7,0.8,1.1,1.8,1.1,2.9V708.1
			z M684.5,687h-7.8v-9.1c0-2.2,1.8-4.2,3.9-4.2c1.1,0,2,0.5,2.7,1.3c0.7,0.8,1.1,1.8,1.1,2.9V687z M684.5,665.9h-7.8v-9.1
			c0-2.2,1.8-4.2,3.9-4.2c1.1,0,2,0.5,2.7,1.3c0.7,0.8,1.1,1.8,1.1,2.9V665.9z"/>
	</g>
</g>
<g>
	<defs>
		
			<rect id="SVGID_281_" x="13.7" y="11.3" transform="matrix(-1 -1.224647e-16 1.224647e-16 -1 163.9884 159.0456)" width="136.5" height="136.5"/>
	</defs>
	<clipPath id="SVGID_18_">
		<use xlink:href="#SVGID_281_"  style="overflow:visible;"/>
	</clipPath>
	<g id="XMLID_32_" class="st30">
		<polygon id="XMLID_98_" class="st238" points="37.8,109 35.9,109 37.8,113.4 37.8,139 68.2,139 68.2,109 		"/>
		<polygon id="XMLID_75_" class="st238" points="35.6,139 33.7,139 35.6,143.4 35.6,173.8 68.2,173.8 68.2,139 		"/>
		<polygon id="XMLID_74_" class="st238" points="40,91.1 38.1,91.1 40,94.9 40,109 68.2,109 68.2,91.1 		"/>
		<polygon id="XMLID_73_" class="st238" points="42.3,79.5 40.3,79.5 42.3,82.5 42.3,91.1 68.2,91.1 68.2,79.5 		"/>
		<polygon id="XMLID_72_" class="st238" points="94.1,79.5 96.1,79.5 94.1,82.5 94.1,91.1 68.2,91.1 68.2,79.5 		"/>
		<polygon id="XMLID_71_" class="st238" points="98.6,109 100.5,109 98.6,113.4 98.6,139 68.2,139 68.2,109 		"/>
		<polygon id="XMLID_70_" class="st238" points="100.8,139 102.7,139 100.8,143.4 100.8,173.8 68.2,173.8 68.2,139 		"/>
		<polygon class="st238" points="102,173.8 97.8,173.8 68.2,173.8 38.6,173.8 34.4,173.8 32.5,173.8 34.4,177.8 34.4,224.6 
			68.2,224.6 102,224.6 102,177.8 103.9,173.8 		"/>
		<polygon class="st238" points="34.3,224.6 34.3,338.4 68.2,338.4 102.1,338.4 102.1,224.6 		"/>
		<polygon class="st238" points="34.3,278.1 34.3,338.4 68.2,338.4 102.1,338.4 102.1,278.1 		"/>
		<polygon id="XMLID_69_" class="st238" points="96.4,91.1 98.3,91.1 96.4,94.9 96.4,109 68.2,109 68.2,91.1 		"/>
		<polygon class="st238" points="95.4,64.2 67.9,64.2 41,64.2 43.2,71.8 67.9,71.8 93.1,71.8 		"/>
		<polygon class="st238" points="95.4,71.8 67.9,71.8 41,71.8 43.2,79.5 67.9,79.5 93.1,79.5 		"/>
		<g>
			<polygon class="st238" points="45,57.1 45.8,64.3 90,64.3 90.8,57.1 			"/>
			<polyline class="st238" points="79.3,50.7 80.1,44.6 55.6,44.6 56.4,50.7 			"/>
			<polygon class="st238" points="65.4,34.5 62.6,34.5 65.4,39.2 65.4,40 64,44.6 71.7,44.6 70.3,40 70.3,39.2 73.1,34.5 70.3,34.5 
							"/>
			<polyline class="st238" points="85.2,57.1 86.2,50.7 49.5,50.7 50.6,57.1 			"/>
		</g>
		<g>
			<rect id="XMLID_68_" x="49.6" y="64.3" class="st238" width="1.4" height="7.6"/>
			<rect id="XMLID_67_" x="82.9" y="64.3" class="st238" width="1.4" height="7.6"/>
			<rect id="XMLID_66_" x="59.9" y="64.3" class="st238" width="1.7" height="7.6"/>
			<rect id="XMLID_65_" x="72.3" y="64.3" class="st238" width="1.7" height="7.6"/>
			<g>
				<rect id="XMLID_64_" x="49.6" y="71.8" class="st238" width="1.4" height="7.7"/>
				<rect id="XMLID_63_" x="82.9" y="71.8" class="st238" width="1.4" height="7.7"/>
				<rect id="XMLID_62_" x="59.9" y="71.8" class="st238" width="1.7" height="7.7"/>
				<rect id="XMLID_61_" x="72.3" y="71.8" class="st238" width="1.7" height="7.7"/>
			</g>
			<g>
				<rect id="XMLID_60_" x="49.6" y="79.5" class="st238" width="1.4" height="11.6"/>
				<rect id="XMLID_59_" x="82.9" y="79.5" class="st238" width="1.4" height="11.6"/>
				<rect id="XMLID_58_" x="59.9" y="79.5" class="st238" width="1.7" height="11.6"/>
				<rect id="XMLID_57_" x="72.3" y="79.5" class="st238" width="1.7" height="11.6"/>
			</g>
			<g>
				<rect id="XMLID_56_" x="49.6" y="91.1" class="st238" width="1.4" height="17.8"/>
				<rect id="XMLID_55_" x="82.9" y="91.1" class="st238" width="1.4" height="17.8"/>
				<rect id="XMLID_54_" x="59.9" y="91.1" class="st238" width="1.7" height="17.8"/>
				<rect id="XMLID_53_" x="72.3" y="91.1" class="st238" width="1.7" height="17.8"/>
			</g>
			<g>
				<rect id="XMLID_52_" x="49.6" y="109" class="st238" width="1.4" height="30"/>
				<rect id="XMLID_51_" x="82.9" y="109" class="st238" width="1.4" height="30"/>
				<rect id="XMLID_50_" x="59.9" y="109" class="st238" width="1.7" height="30"/>
				<rect id="XMLID_49_" x="72.3" y="109" class="st238" width="1.7" height="30"/>
			</g>
			<g>
				<rect id="XMLID_48_" x="49.6" y="139" class="st238" width="1.4" height="34.8"/>
				<rect id="XMLID_47_" x="82.9" y="139" class="st238" width="1.4" height="34.8"/>
				<rect id="XMLID_46_" x="59.9" y="139" class="st238" width="1.7" height="34.8"/>
				<rect id="XMLID_45_" x="72.3" y="139" class="st238" width="1.7" height="34.8"/>
			</g>
			<g>
				<rect id="XMLID_44_" x="49.6" y="173.8" class="st238" width="1.4" height="50.8"/>
				<rect id="XMLID_43_" x="82.9" y="173.8" class="st238" width="1.4" height="50.8"/>
				<rect id="XMLID_42_" x="59.9" y="173.8" class="st238" width="1.7" height="50.8"/>
				<rect id="XMLID_41_" x="72.3" y="173.8" class="st238" width="1.7" height="50.8"/>
			</g>
			<g>
				<rect id="XMLID_40_" x="49.6" y="224.6" class="st238" width="1.4" height="53.5"/>
				<rect id="XMLID_39_" x="82.9" y="224.6" class="st238" width="1.4" height="53.5"/>
				<rect id="XMLID_38_" x="59.9" y="224.6" class="st238" width="1.7" height="53.5"/>
				<rect id="XMLID_37_" x="72.3" y="224.6" class="st238" width="1.7" height="53.5"/>
			</g>
			<g>
				<rect id="XMLID_36_" x="49.6" y="278.1" class="st238" width="1.4" height="60.3"/>
				<rect id="XMLID_35_" x="82.9" y="278.1" class="st238" width="1.4" height="60.3"/>
				<rect id="XMLID_34_" x="59.9" y="278.1" class="st238" width="1.7" height="60.3"/>
				<rect id="XMLID_33_" x="72.3" y="278.1" class="st238" width="1.7" height="60.3"/>
			</g>
		</g>
		<polyline class="st238" points="70.3,34.5 71.6,28 69.1,29.5 68.7,29.5 68.3,15.8 67.5,15.8 67,29.5 66.6,29.5 63.7,28 65.4,34.5 
					"/>
	</g>
</g>
<g>
	<defs>
		
			<rect id="SVGID_283_" x="157.6" y="11.3" transform="matrix(-1 -1.224647e-16 1.224647e-16 -1 451.6975 159.0456)" width="136.5" height="136.5"/>
	</defs>
	<clipPath id="SVGID_20_">
		<use xlink:href="#SVGID_283_"  style="overflow:visible;"/>
	</clipPath>
	<g class="st31">
		<g id="XMLID_28_">
			<path id="XMLID_31_" class="st64" d="M266.1,355.9l3.9,26.3v32.2h-70l11.8-365.8c0,0,6.4-3.9,8.2-2.9l34,219.9L266.1,355.9z"/>
			<path id="XMLID_30_" class="st64" d="M254,265.6L220,45.7c-1-0.5-3.1,0-6.3,1.8c0,79.4,3.8,133,16,187.4
				c8.1,36.4,22.9,67.1,40.3,148.2v-0.9l-3.9-26.3L254,265.6z"/>
			<path id="XMLID_29_" class="st64" d="M216.3,32.8c6.1-0.6,30,5.2,33.8,13.5c0,0,16.3,305.3,16.1,309.6
				c-10.6-61.1-28.1-95.5-37.6-155.4C219.6,144.2,217.6,94.5,216.3,32.8z"/>
			<path class="st146" d="M226.6,54c0,0,7.9,1,16.6,4.8l0.8,8.9c0,0-5.3-2.7-16.5-4.3L226.6,54z"/>
		</g>
		<g>
			<line class="st64" x1="211.1" y1="64.8" x2="251.4" y2="76.3"/>
			<line class="st64" x1="211" y1="69.8" x2="251.6" y2="81"/>
			<line class="st64" x1="210.9" y1="74.7" x2="251.9" y2="85.8"/>
			<line class="st64" x1="210.7" y1="79.6" x2="252.1" y2="90.5"/>
			<line class="st64" x1="210.6" y1="84.5" x2="252.3" y2="95.3"/>
			<line class="st64" x1="210.4" y1="89.5" x2="252.6" y2="100.1"/>
			<line class="st64" x1="210.3" y1="94.4" x2="252.8" y2="104.8"/>
			<line class="st64" x1="210.1" y1="99.3" x2="253" y2="109.6"/>
			<line class="st64" x1="210" y1="104.2" x2="253.3" y2="114.4"/>
			<line class="st64" x1="209.8" y1="109.2" x2="253.5" y2="119.1"/>
			<line class="st64" x1="209.7" y1="114.1" x2="253.7" y2="123.9"/>
			<line class="st64" x1="209.5" y1="119" x2="254" y2="128.6"/>
			<line class="st64" x1="209.4" y1="123.9" x2="254.2" y2="133.4"/>
			<line class="st64" x1="209.2" y1="128.8" x2="254.4" y2="138.2"/>
			<line class="st64" x1="209.1" y1="133.8" x2="254.7" y2="142.9"/>
			<line class="st64" x1="208.9" y1="138.7" x2="254.9" y2="147.7"/>
			<line class="st64" x1="208.8" y1="143.6" x2="255.1" y2="152.5"/>
			<line class="st64" x1="208.7" y1="148.5" x2="255.4" y2="157.2"/>
			<line class="st64" x1="208.5" y1="153.5" x2="255.6" y2="162"/>
			<line class="st64" x1="208.4" y1="158.4" x2="255.8" y2="166.7"/>
			<line class="st64" x1="208.2" y1="163.3" x2="256.1" y2="171.5"/>
			<line class="st64" x1="208.1" y1="168.2" x2="256.3" y2="176.3"/>
			<line class="st64" x1="207.9" y1="173.2" x2="256.5" y2="181"/>
			<line class="st64" x1="207.8" y1="178.1" x2="256.8" y2="185.8"/>
			<line class="st64" x1="207.6" y1="183" x2="257" y2="190.6"/>
			<line class="st64" x1="207.5" y1="187.9" x2="257.2" y2="195.3"/>
			<line class="st64" x1="207.3" y1="192.8" x2="257.5" y2="200.1"/>
			<line class="st64" x1="207.2" y1="197.8" x2="257.7" y2="204.8"/>
			<line class="st64" x1="207" y1="202.7" x2="257.9" y2="209.6"/>
			<line class="st64" x1="206.9" y1="207.6" x2="258.2" y2="214.4"/>
			<line class="st64" x1="206.7" y1="212.5" x2="258.4" y2="219.1"/>
			<line class="st64" x1="206.6" y1="217.5" x2="258.6" y2="223.9"/>
			<line class="st64" x1="206.5" y1="222.4" x2="258.9" y2="228.6"/>
			<line class="st64" x1="206.3" y1="227.3" x2="259.1" y2="233.4"/>
			<line class="st64" x1="206.2" y1="232.2" x2="259.3" y2="238.2"/>
			<line class="st64" x1="206" y1="237.2" x2="259.6" y2="242.9"/>
			<line class="st64" x1="205.9" y1="242.1" x2="259.8" y2="247.7"/>
			<line class="st64" x1="205.7" y1="247" x2="260" y2="252.5"/>
			<line class="st64" x1="205.6" y1="251.9" x2="260.3" y2="257.2"/>
			<line class="st64" x1="205.4" y1="256.8" x2="260.5" y2="262"/>
			<line class="st64" x1="205.3" y1="261.8" x2="260.7" y2="266.7"/>
			<line class="st64" x1="205.1" y1="266.7" x2="261" y2="271.5"/>
			<line class="st64" x1="205" y1="271.6" x2="261.2" y2="276.3"/>
			<line class="st64" x1="204.8" y1="276.5" x2="261.4" y2="281"/>
			<line class="st64" x1="204.7" y1="281.5" x2="261.7" y2="285.8"/>
			<line class="st64" x1="204.5" y1="286.4" x2="261.9" y2="290.6"/>
			<line class="st64" x1="204.4" y1="291.3" x2="262.1" y2="295.3"/>
			<line class="st64" x1="204.3" y1="296.2" x2="262.4" y2="300.1"/>
			<line class="st64" x1="204.1" y1="301.1" x2="262.6" y2="304.8"/>
			<line class="st64" x1="204" y1="306.1" x2="262.8" y2="309.6"/>
			<line class="st64" x1="203.8" y1="311" x2="263.1" y2="314.4"/>
			<line class="st64" x1="203.7" y1="315.9" x2="263.3" y2="319.1"/>
			<line class="st64" x1="203.5" y1="320.8" x2="263.5" y2="323.9"/>
			<line class="st64" x1="203.4" y1="325.8" x2="263.8" y2="328.7"/>
			<line class="st64" x1="203.2" y1="330.7" x2="264" y2="333.4"/>
			<line class="st64" x1="203.1" y1="335.6" x2="264.2" y2="338.2"/>
			<line class="st64" x1="202.9" y1="340.5" x2="264.5" y2="342.9"/>
			<line class="st64" x1="202.8" y1="345.5" x2="264.7" y2="347.7"/>
			<line class="st64" x1="202.6" y1="350.4" x2="264.9" y2="352.5"/>
			<line class="st64" x1="202.5" y1="355.3" x2="265.2" y2="357.2"/>
			<line class="st64" x1="202.3" y1="360.2" x2="265.4" y2="362"/>
			<line class="st64" x1="202.2" y1="365.1" x2="265.6" y2="366.8"/>
			<line class="st64" x1="202.1" y1="370.1" x2="265.9" y2="371.5"/>
			<line class="st64" x1="201.9" y1="375" x2="266.1" y2="376.3"/>
			<line class="st64" x1="201.8" y1="379.9" x2="266.3" y2="381"/>
			<line class="st64" x1="201.6" y1="384.8" x2="266.6" y2="385.8"/>
			<line class="st64" x1="201.5" y1="389.8" x2="266.8" y2="390.6"/>
			<line class="st64" x1="201.3" y1="394.7" x2="267" y2="395.3"/>
			<line class="st64" x1="201.2" y1="399.6" x2="267.3" y2="400.1"/>
			<line class="st64" x1="201" y1="404.5" x2="267.5" y2="404.8"/>
			<line class="st64" x1="200.9" y1="409.5" x2="267.7" y2="409.6"/>
		</g>
	</g>
</g>
<g>
	<defs>
		
			<rect id="SVGID_285_" x="301.4" y="11.3" transform="matrix(-1 -1.224647e-16 1.224647e-16 -1 739.4066 159.0456)" width="136.5" height="136.5"/>
	</defs>
	<clipPath id="SVGID_22_">
		<use xlink:href="#SVGID_285_"  style="overflow:visible;"/>
	</clipPath>
	<g class="st32">
		<polygon class="st99" points="440.3,599 303.3,599 303.3,69.4 371.8,24.4 403,81 440.3,50.6 		"/>
		<polygon class="st99" points="440.3,599 303.3,599 303.3,143 371.8,99.4 403,81 440.3,50.6 		"/>
		<polygon class="st99" points="440.3,599 371.8,599 371.8,24.4 403,81 440.3,50.6 		"/>
		<polygon class="st99" points="440.3,599 406.1,599 403,153.1 440.3,107.6 		"/>
		<polygon class="st99" points="406.1,599 371.8,599 371.8,99.4 403,153.1 		"/>
	</g>
</g>
<g>
	<defs>
		
			<rect id="SVGID_287_" x="344.4" y="299.2" transform="matrix(-1 -1.224647e-16 1.224647e-16 -1 969.1198 878.8713)" width="280.4" height="280.4"/>
	</defs>
	<clipPath id="SVGID_24_">
		<use xlink:href="#SVGID_287_"  style="overflow:visible;"/>
	</clipPath>
	<g style="clip-path:url(#SVGID_24_);">
		<g>
			<g>
				<rect x="456.2" y="415.5" class="st98" width="75.3" height="178.5"/>
			</g>
			<g>
				<rect x="443.4" y="434.7" class="st98" width="44.4" height="159.3"/>
			</g>
			<g>
				<g>
					<rect x="362.4" y="367.6" class="st98" width="84.2" height="226.4"/>
					<rect x="399.7" y="367.6" class="st98" width="9.6" height="226.4"/>
					<path class="st98" d="M404.4,334.1L404.4,334.1c-1.6,0-3-1.3-3-3v-16.2c0-1.6,1.3-3,3-3l0,0c1.6,0,3,1.3,3,3v16.2
						C407.4,332.7,406.1,334.1,404.4,334.1z"/>
					<rect x="370.9" y="365.1" class="st98" width="67.1" height="2.5"/>
					<rect x="352.7" y="383.9" class="st98" width="47" height="67.3"/>
					<rect x="409.2" y="383.9" class="st98" width="47" height="67.3"/>
					<rect x="344" y="451.2" class="st98" width="55.7" height="142.7"/>
					<rect x="409.2" y="451.2" class="st98" width="55.7" height="142.7"/>
					<path class="st98" d="M438.1,365.1h-67.3c0-18.6,15.1-33.7,33.7-33.7C423,331.5,438.1,346.5,438.1,365.1z"/>
				</g>
			</g>
		</g>
	</g>
</g>
</svg>
