<svg width="1920" height="2204" viewBox="0 0 1920 2204" fill="none" xmlns="http://www.w3.org/2000/svg">
<path d="M1547.88 362.51C1859.67 346.02 2046.07 693.991 2412.24 491.065L2462.29 2112L-66.457 2112L-159.92 134.659C411.379 104.445 524.161 402.665 878.417 494.94C1173.23 529.172 1300.8 375.577 1547.88 362.51Z" fill="url(#paint0_linear_163_330)" fill-opacity="0.5"/>
<path d="M1558.52 1541.16C1870.32 1524.67 2051.99 1783.4 2420.58 1626.25L2439.42 3399.91L-86.9757 3399.91L-145.08 1392.66C426.218 1362.45 534.989 1584.8 887.78 1649.39C1181.94 1671.2 1311.44 1554.23 1558.52 1541.16Z" fill="url(#paint1_linear_163_330)"/>
<path d="M2016 1750C1968 1612 1740 1518 1630 1518C1278.19 1518 1029.81 1628.83 846 1638C662.188 1647.17 500.187 1582 310 1582C119.812 1582 -180 1704.83 -180 1704.83C196 1620.83 375.513 1699.92 566 1724C740 1746 840.244 1730.53 1111.81 1704.83C1488 1620.83 1620.19 1646 2016 1750Z" fill="#ECF8FF"/>
<defs>
<linearGradient id="paint0_linear_163_330" x1="1145.02" y1="-20.9009" x2="1091.77" y2="3009.38" gradientUnits="userSpaceOnUse">
<stop stop-color="#9CFAFF"/>
<stop offset="1" stop-color="#7A98F9"/>
</linearGradient>
<linearGradient id="paint1_linear_163_330" x1="1161" y1="1258.68" x2="1161" y2="3533.93" gradientUnits="userSpaceOnUse">
<stop stop-color="#9CFAFF"/>
<stop offset="1" stop-color="#7A98F9"/>
</linearGradient>
</defs>
</svg>
