<svg width="262" height="40" viewBox="0 0 262 40" fill="none" xmlns="http://www.w3.org/2000/svg">
<path d="M0.77525 39L5.79125 0.599999H15.7753L20.7913 39H19.5313L14.6953 1.608H6.87125L2.03525 39H0.77525ZM5.76725 39L7.03925 29.004H14.5273L15.7993 39H14.5153L13.5312 30H8.03525L7.05125 39H5.76725ZM3.24725 39L7.61525 2.628H13.9513L18.3193 39H17.0353L15.7153 28.008H5.85125L4.53125 39H3.24725ZM5.93525 27.012H15.5953L14.3833 16.104L12.8713 3.636H8.69525L7.13525 16.104L5.93525 27.012ZM7.33925 26.016L8.33525 16.104L9.53525 4.572H12.0313L13.2793 16.104L14.2393 26.016H7.33925ZM8.62325 25.02H12.9553L12.1273 16.104L11.1193 5.58H10.4473L9.43925 16.104L8.62325 25.02ZM26.6285 39V0.599999H35.1965C37.1805 0.599999 38.8485 0.859999 40.2005 1.38C41.5605 1.892 42.6005 2.772 43.3205 4.02C44.0405 5.26 44.4405 6.976 44.5205 9.168C44.5765 10.736 44.6005 12.188 44.5925 13.524C44.5925 14.852 44.5685 16.24 44.5205 17.688C44.4485 19.56 44.1045 21.032 43.4885 22.104C42.8725 23.176 41.9005 24.02 40.5725 24.636L44.6885 39H43.3925L39.0485 24C40.4885 23.6 41.5365 22.908 42.1925 21.924C42.8485 20.932 43.2085 19.508 43.2725 17.652C43.3205 16.26 43.3445 14.892 43.3445 13.548C43.3525 12.204 43.3285 10.76 43.2725 9.216C43.2085 7.256 42.8565 5.732 42.2165 4.644C41.5765 3.548 40.6685 2.78 39.4925 2.34C38.3165 1.9 36.8845 1.68 35.1965 1.68H27.8645V39H26.6285ZM31.5845 39V24.372H33.7805C34.0365 24.372 34.2885 24.372 34.5365 24.372C34.7925 24.372 35.0405 24.372 35.2805 24.372L39.4925 39H38.1965L34.3685 25.452C34.2805 25.452 34.1885 25.452 34.0925 25.452C34.0045 25.452 33.9165 25.452 33.8285 25.452H32.8205V39H31.5845ZM29.1005 39V2.76H35.1965C36.6045 2.76 37.8045 2.948 38.7965 3.324C39.7965 3.692 40.5685 4.348 41.1125 5.292C41.6645 6.236 41.9725 7.556 42.0365 9.252C42.0845 10.708 42.1125 12.12 42.1205 13.488C42.1285 14.848 42.1005 16.22 42.0365 17.604C41.9645 19.316 41.5725 20.604 40.8605 21.468C40.1485 22.324 39.0085 22.884 37.4405 23.148L42.0965 39H40.8005L36.1805 23.268C36.0365 23.276 35.8805 23.284 35.7125 23.292C35.5525 23.292 35.3765 23.292 35.1845 23.292H30.3485V39H29.1005ZM30.3485 22.224H35.1845C36.9285 22.224 38.2805 21.908 39.2405 21.276C40.2085 20.636 40.7285 19.4 40.8005 17.568C40.8485 16.168 40.8725 14.812 40.8725 13.5C40.8805 12.18 40.8565 10.776 40.8005 9.288C40.7205 7.136 40.1965 5.688 39.2285 4.944C38.2605 4.2 36.9165 3.828 35.1965 3.828H30.3485V22.224ZM31.5845 21.144V4.908H35.1965C36.5565 4.908 37.6085 5.212 38.3525 5.82C39.0965 6.428 39.5005 7.6 39.5645 9.336C39.6125 10.728 39.6365 12.084 39.6365 13.404C39.6445 14.724 39.6205 16.096 39.5645 17.52C39.5085 18.944 39.1085 19.904 38.3645 20.4C37.6205 20.896 36.5605 21.144 35.1845 21.144H31.5845ZM32.8205 20.064H35.1845C36.1925 20.064 36.9605 19.888 37.4885 19.536C38.0165 19.176 38.2925 18.492 38.3165 17.484C38.3645 15.836 38.3845 14.38 38.3765 13.116C38.3765 11.852 38.3565 10.604 38.3165 9.372C38.2845 8.108 38.0165 7.228 37.5125 6.732C37.0165 6.236 36.2445 5.988 35.1965 5.988H32.8205V20.064ZM59.6863 39.444C56.4543 39.444 54.1303 38.764 52.7143 37.404C51.2983 36.036 50.5663 33.78 50.5183 30.636C50.4783 27.964 50.4543 25.432 50.4463 23.04C50.4383 20.648 50.4383 18.3 50.4463 15.996C50.4623 13.692 50.4863 11.34 50.5183 8.94C50.5663 5.804 51.2943 3.56 52.7023 2.208C54.1103 0.847999 56.4183 0.167999 59.6263 0.167999C62.7463 0.167999 65.0143 0.839999 66.4303 2.184C67.8543 3.528 68.6183 5.78 68.7223 8.94C68.7383 9.3 68.7463 9.716 68.7463 10.188C68.7463 10.652 68.7423 11.148 68.7343 11.676C68.7343 12.196 68.7303 12.72 68.7223 13.248C68.7143 13.776 68.7023 14.272 68.6863 14.736H67.4383C67.4623 14.12 67.4783 13.456 67.4863 12.744C67.5023 12.024 67.5103 11.332 67.5103 10.668C67.5103 9.996 67.5023 9.428 67.4863 8.964C67.3903 6.172 66.7303 4.176 65.5063 2.976C64.2903 1.768 62.3303 1.164 59.6263 1.164C56.8423 1.164 54.8423 1.768 53.6263 2.976C52.4183 4.184 51.7943 6.18 51.7543 8.964C51.7223 11.412 51.6983 13.848 51.6823 16.272C51.6743 18.696 51.6743 21.104 51.6823 23.496C51.6983 25.888 51.7223 28.26 51.7543 30.612C51.7943 33.412 52.4263 35.42 53.6503 36.636C54.8823 37.844 56.8943 38.448 59.6863 38.448C62.4223 38.448 64.4103 37.844 65.6503 36.636C66.8903 35.428 67.5663 33.42 67.6783 30.612C67.7023 29.812 67.7143 28.9 67.7143 27.876C67.7223 26.844 67.7063 25.796 67.6663 24.732H68.9023C68.9343 25.7 68.9503 26.732 68.9503 27.828C68.9583 28.916 68.9463 29.852 68.9143 30.636C68.8023 33.78 68.0303 36.036 66.5983 37.404C65.1663 38.764 62.8623 39.444 59.6863 39.444ZM59.6863 37.452C57.3343 37.452 55.6383 36.924 54.5983 35.868C53.5663 34.812 53.0343 33.056 53.0023 30.6C52.9623 28.184 52.9343 25.8 52.9183 23.448C52.9103 21.096 52.9103 18.728 52.9183 16.344C52.9343 13.952 52.9623 11.492 53.0023 8.964C53.0343 6.532 53.5623 4.792 54.5863 3.744C55.6183 2.688 57.2983 2.16 59.6263 2.16C61.8903 2.16 63.5343 2.688 64.5583 3.744C65.5903 4.792 66.1503 6.536 66.2383 8.976C66.2543 9.328 66.2623 9.748 66.2623 10.236C66.2703 10.724 66.2703 11.24 66.2623 11.784C66.2543 12.32 66.2463 12.844 66.2383 13.356C66.2303 13.868 66.2183 14.328 66.2023 14.736H64.9663C64.9983 13.904 65.0143 13.132 65.0143 12.42C65.0223 11.7 65.0263 11.052 65.0263 10.476C65.0263 9.9 65.0183 9.42 65.0023 9.036C64.9303 6.956 64.4783 5.456 63.6463 4.536C62.8223 3.616 61.4823 3.156 59.6263 3.156C57.7223 3.156 56.3543 3.604 55.5223 4.5C54.6983 5.396 54.2703 6.884 54.2383 8.964C54.2063 11.348 54.1823 13.724 54.1663 16.092C54.1503 18.452 54.1503 20.84 54.1663 23.256C54.1823 25.664 54.2063 28.132 54.2383 30.66C54.2703 32.756 54.7103 34.248 55.5583 35.136C56.4063 36.016 57.7743 36.456 59.6623 36.456C61.6063 36.456 62.9903 35.988 63.8143 35.052C64.6463 34.108 65.1063 32.604 65.1943 30.54C65.2183 30.044 65.2303 29.484 65.2303 28.86C65.2383 28.236 65.2383 27.576 65.2303 26.88C65.2303 26.176 65.2183 25.46 65.1943 24.732H66.4303C66.4543 25.38 66.4663 26.064 66.4663 26.784C66.4743 27.496 66.4743 28.184 66.4663 28.848C66.4663 29.512 66.4543 30.104 66.4303 30.624C66.3423 33.072 65.7703 34.824 64.7143 35.88C63.6583 36.928 61.9823 37.452 59.6863 37.452ZM59.6623 35.46C58.2063 35.46 57.1503 35.096 56.4943 34.368C55.8383 33.632 55.4983 32.392 55.4743 30.648C55.4423 28.272 55.4183 25.9 55.4023 23.532C55.3943 21.164 55.3943 18.776 55.4023 16.368C55.4183 13.952 55.4423 11.488 55.4743 8.976C55.4983 7.24 55.8303 6.004 56.4703 5.268C57.1103 4.524 58.1623 4.152 59.6263 4.152C61.0263 4.152 62.0463 4.532 62.6863 5.292C63.3343 6.044 63.6943 7.288 63.7663 9.024C63.7823 9.408 63.7903 9.888 63.7903 10.464C63.7903 11.04 63.7863 11.688 63.7783 12.408C63.7703 13.128 63.7543 13.904 63.7303 14.736H62.4823C62.5143 13.904 62.5343 13.124 62.5423 12.396C62.5503 11.66 62.5543 11.012 62.5543 10.452C62.5543 9.892 62.5463 9.448 62.5303 9.12C62.4743 7.776 62.2343 6.78 61.8103 6.132C61.3863 5.476 60.6583 5.148 59.6263 5.148C58.5943 5.148 57.8543 5.444 57.4063 6.036C56.9663 6.62 56.7343 7.608 56.7103 9C56.6783 11.424 56.6543 13.812 56.6383 16.164C56.6223 18.508 56.6223 20.872 56.6383 23.256C56.6543 25.632 56.6783 28.088 56.7103 30.624C56.7343 32.016 56.9743 33.004 57.4303 33.588C57.8863 34.172 58.6303 34.464 59.6623 34.464C60.6783 34.464 61.4223 34.164 61.8943 33.564C62.3743 32.956 62.6503 31.94 62.7223 30.516C62.7463 29.876 62.7583 29.008 62.7583 27.912C62.7583 26.808 62.7423 25.748 62.7103 24.732H63.9463C63.9863 25.716 64.0063 26.736 64.0063 27.792C64.0063 28.848 63.9903 29.748 63.9583 30.492C63.8863 32.276 63.5183 33.552 62.8543 34.32C62.1903 35.08 61.1263 35.46 59.6623 35.46ZM78.1374 39V0.599999H79.3854V18.984H89.6454V0.599999H90.8814V39H89.6454V20.052H79.3854V39H78.1374ZM80.6454 39V21.132H88.4094V39H87.1734V22.212H81.8574V39H80.6454ZM75.6654 39V0.599999H76.9014V39H75.6654ZM92.1294 39V0.599999H93.3654V39H92.1294ZM80.6214 17.904V0.599999H81.8574V16.824H87.1734V0.599999H88.4094V17.904H80.6214ZM105.585 39V0.599999H106.821V39H105.585ZM100.629 39V0.599999H101.865V39H100.629ZM103.101 39V0.599999H104.349V39H103.101ZM123.925 39.444C120.541 39.444 118.097 38.764 116.593 37.404C115.089 36.044 114.297 33.8 114.217 30.672C114.201 29.84 114.193 29.156 114.193 28.62C114.193 28.076 114.205 27.56 114.229 27.072C114.253 26.576 114.289 25.984 114.337 25.296C114.417 24.056 114.813 22.768 115.525 21.432C116.245 20.088 117.121 18.948 118.153 18.012C117.681 16.98 117.261 15.964 116.893 14.964C116.533 13.964 116.241 12.984 116.017 12.024C115.793 11.056 115.653 10.124 115.597 9.228C115.357 6.284 115.921 4.036 117.289 2.484C118.665 0.931997 120.769 0.155997 123.601 0.155997C126.449 0.155997 128.545 0.907997 129.889 2.412C131.233 3.916 131.749 6.092 131.437 8.94C131.357 9.852 131.165 10.748 130.861 11.628C130.557 12.508 130.145 13.376 129.625 14.232C129.113 15.088 128.501 15.94 127.789 16.788C127.077 17.636 126.273 18.492 125.377 19.356C125.777 20.236 126.269 21.188 126.853 22.212C127.437 23.236 128.009 24.184 128.569 25.056L128.641 25.02C128.641 24.484 128.613 23.888 128.557 23.232C128.501 22.568 128.433 21.912 128.353 21.264C128.273 20.616 128.181 20.044 128.077 19.548H129.145C129.257 20.42 129.345 21.292 129.409 22.164C129.481 23.028 129.529 23.908 129.553 24.804C129.585 25.7 129.593 26.644 129.577 27.636L129.517 27.66C128.781 26.708 128.077 25.744 127.405 24.768C126.741 23.792 126.117 22.828 125.533 21.876C124.949 20.924 124.413 20.008 123.925 19.128C124.957 18.184 125.861 17.292 126.637 16.452C127.413 15.604 128.065 14.776 128.593 13.968C129.121 13.152 129.533 12.324 129.829 11.484C130.125 10.644 130.317 9.752 130.405 8.808C130.669 6.32 130.221 4.424 129.061 3.12C127.901 1.808 126.081 1.152 123.601 1.152C121.145 1.152 119.325 1.832 118.141 3.192C116.965 4.552 116.473 6.528 116.665 9.12C116.705 9.736 116.797 10.392 116.941 11.088C117.093 11.784 117.293 12.516 117.541 13.284C117.789 14.044 118.089 14.84 118.441 15.672C118.793 16.504 119.189 17.36 119.629 18.24C118.821 18.832 118.117 19.524 117.517 20.316C116.925 21.1 116.457 21.928 116.113 22.8C115.777 23.664 115.585 24.52 115.537 25.368C115.481 26.04 115.441 26.616 115.417 27.096C115.393 27.576 115.381 28.08 115.381 28.608C115.381 29.136 115.389 29.812 115.405 30.636C115.477 33.428 116.173 35.428 117.493 36.636C118.813 37.844 120.957 38.448 123.925 38.448C125.253 38.448 126.381 38.3 127.309 38.004C128.237 37.708 129.001 37.252 129.601 36.636C130.209 36.012 130.693 35.212 131.053 34.236L131.125 34.212C131.501 34.66 131.881 35.124 132.265 35.604C132.649 36.076 133.037 36.548 133.429 37.02C133.829 37.484 134.233 37.94 134.641 38.388L133.861 39.144C133.421 38.648 132.977 38.136 132.529 37.608C132.081 37.072 131.641 36.552 131.209 36.048L131.137 36.072C130.513 37.192 129.625 38.036 128.473 38.604C127.321 39.164 125.805 39.444 123.925 39.444ZM123.925 37.452C121.373 37.452 119.529 36.92 118.393 35.856C117.257 34.792 116.661 33.044 116.605 30.612C116.589 29.772 116.581 29.092 116.581 28.572C116.581 28.052 116.593 27.56 116.617 27.096C116.641 26.632 116.677 26.072 116.725 25.416C116.813 24.008 117.221 22.76 117.949 21.672C118.677 20.584 119.709 19.556 121.045 18.588C120.389 17.34 119.821 16.148 119.341 15.012C118.869 13.868 118.497 12.792 118.225 11.784C117.961 10.776 117.801 9.848 117.745 9C117.577 6.768 117.993 5.068 118.993 3.9C119.993 2.732 121.529 2.148 123.601 2.148C125.697 2.148 127.237 2.704 128.221 3.816C129.205 4.928 129.585 6.54 129.361 8.652C129.273 9.604 129.081 10.5 128.785 11.34C128.489 12.172 128.069 12.988 127.525 13.788C126.981 14.588 126.301 15.408 125.485 16.248C124.677 17.088 123.709 17.992 122.581 18.96C123.245 20.096 123.973 21.276 124.765 22.5C125.557 23.716 126.413 24.96 127.333 26.232C128.261 27.504 129.249 28.788 130.297 30.084C130.417 29.172 130.477 28.08 130.477 26.808C130.485 25.528 130.457 24.24 130.393 22.944C130.337 21.648 130.253 20.516 130.141 19.548H131.161C131.257 20.42 131.333 21.36 131.389 22.368C131.445 23.376 131.473 24.396 131.473 25.428C131.481 26.452 131.457 27.436 131.401 28.38C131.345 29.324 131.253 30.168 131.125 30.912C131.653 31.568 132.193 32.228 132.745 32.892C133.305 33.556 133.873 34.22 134.449 34.884C135.025 35.54 135.609 36.196 136.201 36.852L135.421 37.608C134.877 37.032 134.341 36.452 133.813 35.868C133.285 35.284 132.769 34.696 132.265 34.104C131.761 33.504 131.261 32.916 130.765 32.34C130.469 33.524 130.049 34.492 129.505 35.244C128.961 35.996 128.241 36.552 127.345 36.912C126.449 37.272 125.309 37.452 123.925 37.452ZM123.925 36.444C125.205 36.444 126.241 36.272 127.033 35.928C127.833 35.576 128.461 35.032 128.917 34.296C129.373 33.56 129.729 32.612 129.985 31.452C128.833 30.06 127.757 28.684 126.757 27.324C125.765 25.964 124.841 24.628 123.985 23.316C123.137 21.996 122.365 20.724 121.669 19.5C120.413 20.452 119.493 21.384 118.909 22.296C118.333 23.2 118.001 24.264 117.913 25.488C117.865 26.12 117.829 26.66 117.805 27.108C117.789 27.556 117.781 28.04 117.781 28.56C117.781 29.072 117.785 29.744 117.793 30.576C117.849 32.672 118.349 34.176 119.293 35.088C120.245 35.992 121.789 36.444 123.925 36.444ZM123.925 35.448C122.205 35.448 120.961 35.068 120.193 34.308C119.433 33.548 119.033 32.292 118.993 30.54C118.977 29.724 118.969 29.064 118.969 28.56C118.969 28.056 118.981 27.584 119.005 27.144C119.029 26.704 119.065 26.172 119.113 25.548C119.177 24.596 119.405 23.764 119.797 23.052C120.197 22.332 120.717 21.712 121.357 21.192C121.853 22.032 122.381 22.884 122.941 23.748C123.501 24.612 124.093 25.488 124.717 26.376C125.349 27.264 126.009 28.164 126.697 29.076C127.385 29.98 128.101 30.888 128.845 31.8C128.621 32.648 128.313 33.344 127.921 33.888C127.537 34.424 127.025 34.82 126.385 35.076C125.745 35.324 124.925 35.448 123.925 35.448ZM123.925 34.452C124.653 34.452 125.253 34.368 125.725 34.2C126.197 34.032 126.581 33.772 126.877 33.42C127.173 33.068 127.421 32.62 127.621 32.076C126.805 31.076 126.017 30.068 125.257 29.052C124.505 28.028 123.781 27.008 123.085 25.992C122.397 24.968 121.741 23.96 121.117 22.968C120.853 23.248 120.645 23.652 120.493 24.18C120.349 24.7 120.257 25.18 120.217 25.62C120.177 26.228 120.145 26.748 120.121 27.18C120.097 27.612 120.085 28.072 120.085 28.56C120.085 29.048 120.093 29.696 120.109 30.504C120.149 31.92 120.469 32.932 121.069 33.54C121.669 34.148 122.621 34.452 123.925 34.452ZM121.993 17.88C123.049 17 123.961 16.18 124.729 15.42C125.497 14.652 126.129 13.904 126.625 13.176C127.129 12.448 127.517 11.708 127.789 10.956C128.069 10.196 128.249 9.38 128.329 8.508C128.505 6.748 128.193 5.416 127.393 4.512C126.593 3.608 125.329 3.156 123.601 3.156C121.905 3.156 120.653 3.644 119.845 4.62C119.037 5.588 118.701 7.012 118.837 8.892C118.893 10.06 119.193 11.408 119.737 12.936C120.289 14.464 121.041 16.112 121.993 17.88ZM122.293 16.272C121.573 14.792 121.005 13.42 120.589 12.156C120.181 10.892 119.957 9.764 119.917 8.772C119.805 7.252 120.061 6.104 120.685 5.328C121.309 4.544 122.281 4.152 123.601 4.152C124.953 4.152 125.937 4.508 126.553 5.22C127.169 5.924 127.409 6.972 127.273 8.364C127.217 9.1 127.065 9.808 126.817 10.488C126.569 11.168 126.233 11.832 125.809 12.48C125.385 13.128 124.881 13.768 124.297 14.4C123.713 15.024 123.045 15.648 122.293 16.272ZM122.689 14.616C123.225 14.096 123.705 13.576 124.129 13.056C124.553 12.536 124.913 12.016 125.209 11.496C125.505 10.976 125.741 10.444 125.917 9.9C126.093 9.356 126.201 8.796 126.241 8.22C126.337 7.196 126.165 6.428 125.725 5.916C125.285 5.404 124.577 5.148 123.601 5.148C122.665 5.148 121.977 5.444 121.537 6.036C121.097 6.62 120.917 7.496 120.997 8.664C121.029 9.448 121.189 10.344 121.477 11.352C121.773 12.352 122.177 13.44 122.689 14.616ZM136.981 36.084C136.421 35.476 135.869 34.872 135.325 34.272C134.781 33.664 134.249 33.052 133.729 32.436C133.209 31.82 132.701 31.208 132.205 30.6C132.365 29.576 132.457 28.412 132.481 27.108C132.505 25.804 132.481 24.492 132.409 23.172C132.337 21.844 132.237 20.636 132.109 19.548H133.057C133.145 20.444 133.229 21.512 133.309 22.752C133.389 23.984 133.429 25.252 133.429 26.556C133.437 27.86 133.381 29.064 133.261 30.168C133.733 30.744 134.213 31.324 134.701 31.908C135.189 32.484 135.689 33.056 136.201 33.624C136.713 34.192 137.233 34.756 137.761 35.316L136.981 36.084ZM153.869 39.444C150.637 39.444 148.313 38.764 146.897 37.404C145.481 36.036 144.749 33.78 144.701 30.636C144.661 27.964 144.637 25.432 144.629 23.04C144.621 20.648 144.621 18.3 144.629 15.996C144.645 13.692 144.669 11.34 144.701 8.94C144.749 5.804 145.477 3.56 146.885 2.208C148.293 0.847999 150.601 0.167999 153.809 0.167999C156.929 0.167999 159.197 0.839999 160.613 2.184C162.037 3.528 162.801 5.78 162.905 8.94C162.921 9.3 162.929 9.716 162.929 10.188C162.929 10.652 162.925 11.148 162.917 11.676C162.917 12.196 162.913 12.72 162.905 13.248C162.897 13.776 162.885 14.272 162.869 14.736H161.621C161.645 14.12 161.661 13.456 161.669 12.744C161.685 12.024 161.693 11.332 161.693 10.668C161.693 9.996 161.685 9.428 161.669 8.964C161.573 6.172 160.913 4.176 159.689 2.976C158.473 1.768 156.513 1.164 153.809 1.164C151.025 1.164 149.025 1.768 147.809 2.976C146.601 4.184 145.977 6.18 145.937 8.964C145.905 11.412 145.881 13.848 145.865 16.272C145.857 18.696 145.857 21.104 145.865 23.496C145.881 25.888 145.905 28.26 145.937 30.612C145.977 33.412 146.609 35.42 147.833 36.636C149.065 37.844 151.077 38.448 153.869 38.448C156.605 38.448 158.593 37.844 159.833 36.636C161.073 35.428 161.749 33.42 161.861 30.612C161.885 29.812 161.897 28.9 161.897 27.876C161.905 26.844 161.889 25.796 161.849 24.732H163.085C163.117 25.7 163.133 26.732 163.133 27.828C163.141 28.916 163.129 29.852 163.097 30.636C162.985 33.78 162.213 36.036 160.781 37.404C159.349 38.764 157.045 39.444 153.869 39.444ZM153.869 37.452C151.517 37.452 149.821 36.924 148.781 35.868C147.749 34.812 147.217 33.056 147.185 30.6C147.145 28.184 147.117 25.8 147.101 23.448C147.093 21.096 147.093 18.728 147.101 16.344C147.117 13.952 147.145 11.492 147.185 8.964C147.217 6.532 147.745 4.792 148.769 3.744C149.801 2.688 151.481 2.16 153.809 2.16C156.073 2.16 157.717 2.688 158.741 3.744C159.773 4.792 160.333 6.536 160.421 8.976C160.437 9.328 160.445 9.748 160.445 10.236C160.453 10.724 160.453 11.24 160.445 11.784C160.437 12.32 160.429 12.844 160.421 13.356C160.413 13.868 160.401 14.328 160.385 14.736H159.149C159.181 13.904 159.197 13.132 159.197 12.42C159.205 11.7 159.209 11.052 159.209 10.476C159.209 9.9 159.201 9.42 159.185 9.036C159.113 6.956 158.661 5.456 157.829 4.536C157.005 3.616 155.665 3.156 153.809 3.156C151.905 3.156 150.537 3.604 149.705 4.5C148.881 5.396 148.453 6.884 148.421 8.964C148.389 11.348 148.365 13.724 148.349 16.092C148.333 18.452 148.333 20.84 148.349 23.256C148.365 25.664 148.389 28.132 148.421 30.66C148.453 32.756 148.893 34.248 149.741 35.136C150.589 36.016 151.957 36.456 153.845 36.456C155.789 36.456 157.173 35.988 157.997 35.052C158.829 34.108 159.289 32.604 159.377 30.54C159.401 30.044 159.413 29.484 159.413 28.86C159.421 28.236 159.421 27.576 159.413 26.88C159.413 26.176 159.401 25.46 159.377 24.732H160.613C160.637 25.38 160.649 26.064 160.649 26.784C160.657 27.496 160.657 28.184 160.649 28.848C160.649 29.512 160.637 30.104 160.613 30.624C160.525 33.072 159.953 34.824 158.897 35.88C157.841 36.928 156.165 37.452 153.869 37.452ZM153.845 35.46C152.389 35.46 151.333 35.096 150.677 34.368C150.021 33.632 149.681 32.392 149.657 30.648C149.625 28.272 149.601 25.9 149.585 23.532C149.577 21.164 149.577 18.776 149.585 16.368C149.601 13.952 149.625 11.488 149.657 8.976C149.681 7.24 150.013 6.004 150.653 5.268C151.293 4.524 152.345 4.152 153.809 4.152C155.209 4.152 156.229 4.532 156.869 5.292C157.517 6.044 157.877 7.288 157.949 9.024C157.965 9.408 157.973 9.888 157.973 10.464C157.973 11.04 157.969 11.688 157.961 12.408C157.953 13.128 157.937 13.904 157.913 14.736H156.665C156.697 13.904 156.717 13.124 156.725 12.396C156.733 11.66 156.737 11.012 156.737 10.452C156.737 9.892 156.729 9.448 156.713 9.12C156.657 7.776 156.417 6.78 155.993 6.132C155.569 5.476 154.841 5.148 153.809 5.148C152.777 5.148 152.037 5.444 151.589 6.036C151.149 6.62 150.917 7.608 150.893 9C150.861 11.424 150.837 13.812 150.821 16.164C150.805 18.508 150.805 20.872 150.821 23.256C150.837 25.632 150.861 28.088 150.893 30.624C150.917 32.016 151.157 33.004 151.613 33.588C152.069 34.172 152.813 34.464 153.845 34.464C154.861 34.464 155.605 34.164 156.077 33.564C156.557 32.956 156.833 31.94 156.905 30.516C156.929 29.876 156.941 29.008 156.941 27.912C156.941 26.808 156.925 25.748 156.893 24.732H158.129C158.169 25.716 158.189 26.736 158.189 27.792C158.189 28.848 158.173 29.748 158.141 30.492C158.069 32.276 157.701 33.552 157.037 34.32C156.373 35.08 155.309 35.46 153.845 35.46ZM168.256 39L173.272 0.599999H183.256L188.272 39H187.012L182.176 1.608H174.352L169.516 39H168.256ZM173.248 39L174.52 29.004H182.008L183.28 39H181.996L181.012 30H175.516L174.532 39H173.248ZM170.728 39L175.096 2.628H181.432L185.8 39H184.516L183.196 28.008H173.332L172.012 39H170.728ZM173.416 27.012H183.076L181.864 16.104L180.352 3.636H176.176L174.616 16.104L173.416 27.012ZM174.82 26.016L175.816 16.104L177.016 4.572H179.512L180.76 16.104L181.72 26.016H174.82ZM176.104 25.02H180.436L179.608 16.104L178.6 5.58H177.928L176.92 16.104L176.104 25.02ZM202.653 39.444C199.661 39.444 197.429 38.784 195.957 37.464C194.493 36.144 193.701 33.864 193.581 30.624C193.565 30.096 193.553 29.456 193.545 28.704C193.545 27.944 193.561 27.2 193.593 26.472C193.625 25.736 193.677 25.156 193.749 24.732H194.973C194.925 25.156 194.881 25.68 194.841 26.304C194.809 26.928 194.789 27.608 194.781 28.344C194.781 29.08 194.797 29.828 194.829 30.588C194.933 33.428 195.601 35.448 196.833 36.648C198.065 37.848 200.005 38.448 202.653 38.448C205.349 38.448 207.309 37.844 208.533 36.636C209.765 35.42 210.433 33.4 210.537 30.576C210.553 30.08 210.565 29.616 210.573 29.184C210.589 28.744 210.597 28.3 210.597 27.852C210.605 27.404 210.597 26.908 210.573 26.364C210.493 24.14 209.969 22.376 209.001 21.072C208.033 19.768 206.673 18.884 204.921 18.42L200.937 17.34C200.401 17.188 199.945 16.952 199.569 16.632C199.201 16.304 198.917 15.864 198.717 15.312C198.517 14.752 198.405 14.052 198.381 13.212C198.357 12.508 198.345 11.832 198.345 11.184C198.353 10.528 198.365 9.816 198.381 9.048C198.445 7.304 198.809 6.052 199.473 5.292C200.137 4.532 201.197 4.152 202.653 4.152C204.005 4.152 204.993 4.528 205.617 5.28C206.249 6.032 206.601 7.3 206.673 9.084C206.697 9.732 206.701 10.592 206.685 11.664C206.669 12.736 206.641 13.756 206.601 14.724H205.365C205.405 13.764 205.433 12.736 205.449 11.64C205.465 10.544 205.465 9.724 205.449 9.18C205.393 7.612 205.129 6.548 204.657 5.988C204.193 5.428 203.525 5.148 202.653 5.148C201.589 5.148 200.829 5.464 200.373 6.096C199.925 6.728 199.673 7.752 199.617 9.168C199.593 9.928 199.585 10.652 199.593 11.34C199.601 12.028 199.609 12.64 199.617 13.176C199.633 13.816 199.705 14.344 199.833 14.76C199.961 15.168 200.141 15.484 200.373 15.708C200.613 15.932 200.905 16.088 201.249 16.176L205.209 17.208C207.281 17.744 208.877 18.772 209.997 20.292C211.117 21.804 211.725 23.812 211.821 26.316C211.837 26.788 211.841 27.256 211.833 27.72C211.833 28.184 211.829 28.656 211.821 29.136C211.813 29.608 211.797 30.104 211.773 30.624C211.645 33.792 210.869 36.056 209.445 37.416C208.029 38.768 205.765 39.444 202.653 39.444ZM202.653 37.452C200.453 37.452 198.829 36.932 197.781 35.892C196.733 34.844 196.161 33.06 196.065 30.54C196.041 29.908 196.029 29.224 196.029 28.488C196.037 27.744 196.053 27.036 196.077 26.364C196.101 25.684 196.141 25.14 196.197 24.732H197.421C197.381 25.18 197.345 25.708 197.313 26.316C197.281 26.916 197.265 27.576 197.265 28.296C197.265 29.008 197.277 29.756 197.301 30.54C197.381 32.66 197.837 34.176 198.669 35.088C199.509 35.992 200.837 36.444 202.653 36.444C204.493 36.444 205.833 35.988 206.673 35.076C207.513 34.156 207.977 32.644 208.065 30.54C208.089 29.964 208.105 29.46 208.113 29.028C208.121 28.588 208.125 28.168 208.125 27.768C208.125 27.36 208.117 26.928 208.101 26.472C208.061 25.368 207.889 24.436 207.585 23.676C207.289 22.908 206.869 22.292 206.325 21.828C205.781 21.356 205.121 21.02 204.345 20.82L200.313 19.776C199.449 19.552 198.693 19.184 198.045 18.672C197.397 18.152 196.885 17.452 196.509 16.572C196.141 15.684 195.937 14.588 195.897 13.284C195.889 12.772 195.881 12.28 195.873 11.808C195.873 11.336 195.873 10.868 195.873 10.404C195.881 9.94 195.893 9.472 195.909 9C195.997 6.496 196.573 4.728 197.637 3.696C198.709 2.664 200.381 2.148 202.653 2.148C204.877 2.148 206.493 2.68 207.501 3.744C208.509 4.808 209.061 6.568 209.157 9.024C209.181 9.664 209.185 10.54 209.169 11.652C209.153 12.756 209.121 13.78 209.073 14.724H207.849C207.881 13.852 207.905 12.868 207.921 11.772C207.945 10.668 207.945 9.752 207.921 9.024C207.833 6.92 207.381 5.416 206.565 4.512C205.749 3.608 204.445 3.156 202.653 3.156C200.877 3.156 199.533 3.58 198.621 4.428C197.717 5.268 197.225 6.796 197.145 9.012C197.121 9.82 197.109 10.552 197.109 11.208C197.109 11.864 197.121 12.544 197.145 13.248C197.177 14.304 197.329 15.192 197.601 15.912C197.881 16.632 198.273 17.208 198.777 17.64C199.281 18.072 199.893 18.384 200.613 18.576L204.633 19.62C206.113 19.996 207.249 20.744 208.041 21.864C208.841 22.984 209.273 24.5 209.337 26.412C209.353 26.86 209.361 27.284 209.361 27.684C209.369 28.076 209.365 28.492 209.349 28.932C209.341 29.372 209.325 29.904 209.301 30.528C209.205 32.952 208.649 34.712 207.633 35.808C206.625 36.904 204.965 37.452 202.653 37.452ZM202.653 35.448C201.277 35.448 200.265 35.072 199.617 34.32C198.969 33.56 198.609 32.268 198.537 30.444C198.521 29.772 198.513 29.096 198.513 28.416C198.513 27.728 198.525 27.072 198.549 26.448C198.573 25.816 198.605 25.244 198.645 24.732H199.869C199.829 25.332 199.797 25.932 199.773 26.532C199.749 27.124 199.737 27.74 199.737 28.38C199.737 29.012 199.749 29.688 199.773 30.408C199.829 31.744 200.057 32.752 200.457 33.432C200.857 34.112 201.589 34.452 202.653 34.452C203.645 34.452 204.369 34.14 204.825 33.516C205.281 32.884 205.537 31.832 205.593 30.36C205.617 29.768 205.629 29.26 205.629 28.836C205.637 28.404 205.641 28.012 205.641 27.66C205.641 27.3 205.633 26.928 205.617 26.544C205.601 25.84 205.517 25.264 205.365 24.816C205.213 24.36 205.001 24.004 204.729 23.748C204.465 23.492 204.141 23.32 203.757 23.232L199.689 22.176C198.377 21.84 197.261 21.288 196.341 20.52C195.429 19.752 194.725 18.772 194.229 17.58C193.741 16.388 193.473 14.984 193.425 13.368C193.401 12.536 193.389 11.768 193.389 11.064C193.397 10.36 193.413 9.644 193.437 8.916C193.557 5.812 194.325 3.576 195.741 2.208C197.157 0.839997 199.461 0.155997 202.653 0.155997C205.653 0.155997 207.865 0.819998 209.289 2.148C210.721 3.468 211.501 5.728 211.629 8.928C211.653 9.568 211.657 10.472 211.641 11.64C211.625 12.8 211.597 13.828 211.557 14.724H210.309C210.365 13.732 210.397 12.688 210.405 11.592C210.421 10.488 210.417 9.616 210.393 8.976C210.289 6.16 209.629 4.152 208.413 2.952C207.205 1.752 205.285 1.152 202.653 1.152C199.917 1.152 197.929 1.752 196.689 2.952C195.449 4.144 194.777 6.144 194.673 8.952C194.641 9.832 194.625 10.604 194.625 11.268C194.633 11.932 194.645 12.62 194.661 13.332C194.709 14.748 194.941 15.976 195.357 17.016C195.773 18.048 196.369 18.896 197.145 19.56C197.929 20.216 198.881 20.688 200.001 20.976L204.057 22.032C204.625 22.176 205.109 22.424 205.509 22.776C205.917 23.12 206.237 23.596 206.469 24.204C206.701 24.812 206.833 25.58 206.865 26.508C206.881 26.964 206.889 27.376 206.889 27.744C206.889 28.112 206.885 28.504 206.877 28.92C206.869 29.328 206.849 29.828 206.817 30.42C206.745 32.22 206.389 33.508 205.749 34.284C205.117 35.06 204.085 35.448 202.653 35.448ZM227.261 39.444C224.029 39.444 221.705 38.764 220.289 37.404C218.873 36.036 218.141 33.78 218.093 30.636C218.053 27.964 218.029 25.432 218.021 23.04C218.013 20.648 218.013 18.3 218.021 15.996C218.037 13.692 218.061 11.34 218.093 8.94C218.141 5.804 218.869 3.56 220.277 2.208C221.685 0.847999 223.993 0.167999 227.201 0.167999C230.321 0.167999 232.589 0.839999 234.005 2.184C235.429 3.528 236.193 5.78 236.297 8.94C236.313 9.3 236.321 9.716 236.321 10.188C236.321 10.652 236.317 11.148 236.309 11.676C236.309 12.196 236.305 12.72 236.297 13.248C236.289 13.776 236.277 14.272 236.261 14.736H235.013C235.037 14.12 235.053 13.456 235.061 12.744C235.077 12.024 235.085 11.332 235.085 10.668C235.085 9.996 235.077 9.428 235.061 8.964C234.965 6.172 234.305 4.176 233.081 2.976C231.865 1.768 229.905 1.164 227.201 1.164C224.417 1.164 222.417 1.768 221.201 2.976C219.993 4.184 219.369 6.18 219.329 8.964C219.297 11.412 219.273 13.848 219.257 16.272C219.249 18.696 219.249 21.104 219.257 23.496C219.273 25.888 219.297 28.26 219.329 30.612C219.369 33.412 220.001 35.42 221.225 36.636C222.457 37.844 224.469 38.448 227.261 38.448C229.997 38.448 231.985 37.844 233.225 36.636C234.465 35.428 235.141 33.42 235.253 30.612C235.277 29.812 235.289 28.9 235.289 27.876C235.297 26.844 235.281 25.796 235.241 24.732H236.477C236.509 25.7 236.525 26.732 236.525 27.828C236.533 28.916 236.521 29.852 236.489 30.636C236.377 33.78 235.605 36.036 234.173 37.404C232.741 38.764 230.437 39.444 227.261 39.444ZM227.261 37.452C224.909 37.452 223.213 36.924 222.173 35.868C221.141 34.812 220.609 33.056 220.577 30.6C220.537 28.184 220.509 25.8 220.493 23.448C220.485 21.096 220.485 18.728 220.493 16.344C220.509 13.952 220.537 11.492 220.577 8.964C220.609 6.532 221.137 4.792 222.161 3.744C223.193 2.688 224.873 2.16 227.201 2.16C229.465 2.16 231.109 2.688 232.133 3.744C233.165 4.792 233.725 6.536 233.813 8.976C233.829 9.328 233.837 9.748 233.837 10.236C233.845 10.724 233.845 11.24 233.837 11.784C233.829 12.32 233.821 12.844 233.813 13.356C233.805 13.868 233.793 14.328 233.777 14.736H232.541C232.573 13.904 232.589 13.132 232.589 12.42C232.597 11.7 232.601 11.052 232.601 10.476C232.601 9.9 232.593 9.42 232.577 9.036C232.505 6.956 232.053 5.456 231.221 4.536C230.397 3.616 229.057 3.156 227.201 3.156C225.297 3.156 223.929 3.604 223.097 4.5C222.273 5.396 221.845 6.884 221.813 8.964C221.781 11.348 221.757 13.724 221.741 16.092C221.725 18.452 221.725 20.84 221.741 23.256C221.757 25.664 221.781 28.132 221.813 30.66C221.845 32.756 222.285 34.248 223.133 35.136C223.981 36.016 225.349 36.456 227.237 36.456C229.181 36.456 230.565 35.988 231.389 35.052C232.221 34.108 232.681 32.604 232.769 30.54C232.793 30.044 232.805 29.484 232.805 28.86C232.813 28.236 232.813 27.576 232.805 26.88C232.805 26.176 232.793 25.46 232.769 24.732H234.005C234.029 25.38 234.041 26.064 234.041 26.784C234.049 27.496 234.049 28.184 234.041 28.848C234.041 29.512 234.029 30.104 234.005 30.624C233.917 33.072 233.345 34.824 232.289 35.88C231.233 36.928 229.557 37.452 227.261 37.452ZM227.237 35.46C225.781 35.46 224.725 35.096 224.069 34.368C223.413 33.632 223.073 32.392 223.049 30.648C223.017 28.272 222.993 25.9 222.977 23.532C222.969 21.164 222.969 18.776 222.977 16.368C222.993 13.952 223.017 11.488 223.049 8.976C223.073 7.24 223.405 6.004 224.045 5.268C224.685 4.524 225.737 4.152 227.201 4.152C228.601 4.152 229.621 4.532 230.261 5.292C230.909 6.044 231.269 7.288 231.341 9.024C231.357 9.408 231.365 9.888 231.365 10.464C231.365 11.04 231.361 11.688 231.353 12.408C231.345 13.128 231.329 13.904 231.305 14.736H230.057C230.089 13.904 230.109 13.124 230.117 12.396C230.125 11.66 230.129 11.012 230.129 10.452C230.129 9.892 230.121 9.448 230.105 9.12C230.049 7.776 229.809 6.78 229.385 6.132C228.961 5.476 228.233 5.148 227.201 5.148C226.169 5.148 225.429 5.444 224.981 6.036C224.541 6.62 224.309 7.608 224.285 9C224.253 11.424 224.229 13.812 224.213 16.164C224.197 18.508 224.197 20.872 224.213 23.256C224.229 25.632 224.253 28.088 224.285 30.624C224.309 32.016 224.549 33.004 225.005 33.588C225.461 34.172 226.205 34.464 227.237 34.464C228.253 34.464 228.997 34.164 229.469 33.564C229.949 32.956 230.225 31.94 230.297 30.516C230.321 29.876 230.333 29.008 230.333 27.912C230.333 26.808 230.317 25.748 230.285 24.732H231.521C231.561 25.716 231.581 26.736 231.581 27.792C231.581 28.848 231.565 29.748 231.533 30.492C231.461 32.276 231.093 33.552 230.429 34.32C229.765 35.08 228.701 35.46 227.237 35.46ZM241.647 39L246.663 0.599999H256.647L261.663 39H260.403L255.567 1.608H247.743L242.907 39H241.647ZM246.639 39L247.911 29.004H255.399L256.671 39H255.387L254.403 30H248.907L247.923 39H246.639ZM244.119 39L248.487 2.628H254.823L259.191 39H257.907L256.587 28.008H246.723L245.403 39H244.119ZM246.807 27.012H256.467L255.255 16.104L253.743 3.636H249.567L248.007 16.104L246.807 27.012ZM248.211 26.016L249.207 16.104L250.407 4.572H252.903L254.151 16.104L255.111 26.016H248.211ZM249.495 25.02H253.827L252.999 16.104L251.991 5.58H251.319L250.311 16.104L249.495 25.02Z" fill="url(#paint0_linear_279_444)"/>
<defs>
<linearGradient id="paint0_linear_279_444" x1="48.2432" y1="5.47369" x2="320.01" y2="-1.25991" gradientUnits="userSpaceOnUse">
<stop stop-color="#754ABC"/>
<stop offset="1" stop-color="#009FE8"/>
</linearGradient>
</defs>
</svg>
