<svg width="41" height="60" viewBox="0 0 41 60" fill="none" xmlns="http://www.w3.org/2000/svg">
<g clip-path="url(#clip0_263_459)">
<g opacity="0.84">
<path d="M0.523817 0.524769H4.30892C6.33187 0.524769 8.33501 0.923687 10.204 1.69875C12.0729 2.4738 13.7711 3.60983 15.2016 5.04195C16.632 6.47407 17.7667 8.17425 18.5408 10.0454C19.315 11.9166 19.7134 13.9221 19.7134 15.9474V59.4792H0.507812V0.524769H0.523817Z" fill="url(#paint0_linear_263_459)"/>
<path d="M20.2419 60H0V-1.90735e-06H4.32127C8.54206 0.00529819 12.5885 1.68632 15.573 4.67439C18.5576 7.66245 20.2366 11.7136 20.2419 15.9394V60ZM1.0363 58.9545H19.1936V15.9394C19.1894 11.9916 17.6211 8.20682 14.8329 5.41536C12.0447 2.62389 8.26436 1.05378 4.32127 1.04954H1.0483L1.0363 58.9545Z" fill="white"/>
</g>
<g opacity="0.84">
<path d="M7.41443 14.2329C8.31991 14.2324 9.21662 14.4105 10.0533 14.7572C10.8899 15.1039 11.6501 15.6123 12.2904 16.2533C12.9307 16.8943 13.4385 17.6554 13.7847 18.493C14.131 19.3307 14.309 20.2285 14.3084 21.135V59.4792H0.524415V21.135C0.52389 20.2288 0.701717 19.3314 1.04774 18.494C1.39376 17.6566 1.90119 16.8957 2.54104 16.2547C3.18089 15.6137 3.94062 15.1053 4.77681 14.7583C5.61301 14.4114 6.50928 14.2329 7.41443 14.2329Z" fill="url(#paint1_linear_263_459)"/>
<path d="M14.8324 60H4.7595e-05V21.143C-0.0229121 20.1534 0.151936 19.1693 0.514316 18.2483C0.876695 17.3274 1.4193 16.4883 2.11022 15.7803C2.80115 15.0723 3.62646 14.5097 4.53766 14.1256C5.44886 13.7415 6.42755 13.5436 7.41622 13.5436C8.40489 13.5436 9.38358 13.7415 10.2948 14.1256C11.206 14.5097 12.0313 15.0723 12.7222 15.7803C13.4131 16.4883 13.9557 17.3274 14.3181 18.2483C14.6805 19.1693 14.8554 20.1534 14.8324 21.143V60ZM1.04835 58.9545H13.7921V21.135C13.8134 20.2843 13.6644 19.438 13.354 18.6458C13.0435 17.8537 12.5779 17.1318 11.9845 16.5226C11.3911 15.9134 10.6819 15.4292 9.89869 15.0987C9.1155 14.7681 8.27416 14.5978 7.42422 14.5978C6.57429 14.5978 5.73294 14.7681 4.94975 15.0987C4.16656 15.4292 3.45738 15.9134 2.86396 16.5226C2.27054 17.1318 1.80489 17.8537 1.49445 18.6458C1.18401 19.438 1.03506 20.2843 1.05636 21.135L1.04835 58.9545Z" fill="white"/>
</g>
<g opacity="0.8">
<path d="M17.0532 27.3962C17.9654 27.3936 18.8693 27.5712 19.7129 27.9189C20.5564 28.2666 21.3232 28.7775 21.9692 29.4224C22.6152 30.0673 23.1278 30.8335 23.4775 31.6771C23.8272 32.5206 24.0072 33.425 24.0072 34.3384V59.4752H10.1191V34.3384C10.1191 32.4972 10.8497 30.7314 12.1501 29.4295C13.4505 28.1276 15.2141 27.3962 17.0532 27.3962Z" fill="url(#paint2_linear_263_459)"/>
<path d="M24.515 60H9.59863V34.3384C9.59863 32.358 10.3844 30.4588 11.7831 29.0584C13.1818 27.6581 15.0788 26.8714 17.0568 26.8714C19.0348 26.8714 20.9319 27.6581 22.3305 29.0584C23.7292 30.4588 24.515 32.358 24.515 34.3384V60ZM10.6429 58.9545H23.4667V34.3384C23.4667 32.6358 22.7912 31.003 21.5887 29.7992C20.3862 28.5953 18.7553 27.919 17.0548 27.919C15.3543 27.919 13.7234 28.5953 12.5209 29.7992C11.3185 31.003 10.6429 32.6358 10.6429 34.3384V58.9545Z" fill="white"/>
</g>
<g opacity="0.84">
<path d="M40.4758 0.524771V59.4792H30.709V10.3071C30.709 7.71337 31.7379 5.2258 33.5694 3.39137C35.4009 1.55694 37.8851 0.525833 40.4758 0.524771Z" fill="url(#paint3_linear_263_459)"/>
<path d="M41.0004 60H30.1973V10.3271C30.1951 7.59311 31.2768 4.96998 33.2048 3.03373C35.1328 1.09747 37.7495 0.00636726 40.4803 0H41.0004V60ZM31.2296 58.9545H39.9521V1.06156C37.5948 1.19846 35.3788 2.23191 33.7574 3.95053C32.136 5.66915 31.2317 7.94306 31.2296 10.3071V58.9545Z" fill="white"/>
</g>
<path d="M24.1626 9.0012C26.379 9.0012 28.1758 7.20233 28.1758 4.98331C28.1758 2.76429 26.379 0.965416 24.1626 0.965416C21.9462 0.965416 20.1494 2.76429 20.1494 4.98331C20.1494 7.20233 21.9462 9.0012 24.1626 9.0012Z" fill="url(#paint4_linear_263_459)"/>
<g opacity="0.84">
<path d="M33.5424 27.3962C35.3814 27.3962 37.1451 28.1276 38.4455 29.4295C39.7459 30.7314 40.4765 32.4972 40.4765 34.3384V59.4752H26.6084V34.3384C26.6084 32.4972 27.3389 30.7314 28.6393 29.4295C29.9397 28.1276 31.7034 27.3962 33.5424 27.3962Z" fill="url(#paint5_linear_263_459)"/>
<path d="M41.0003 60H26.084V34.3384C26.1291 32.3874 26.9349 30.5316 28.3291 29.1678C29.7232 27.804 31.595 27.0404 33.5442 27.0404C35.4933 27.0404 37.3651 27.804 38.7593 29.1678C40.1534 30.5316 40.9592 32.3874 41.0044 34.3384L41.0003 60ZM27.1283 58.9545H39.932V34.3384C39.932 32.6385 39.2576 31.0082 38.057 29.8062C36.8564 28.6042 35.228 27.929 33.5302 27.929C31.8323 27.929 30.2039 28.6042 29.0034 29.8062C27.8028 31.0082 27.1283 32.6385 27.1283 34.3384V58.9545Z" fill="white"/>
</g>
</g>
<defs>
<linearGradient id="paint0_linear_263_459" x1="10.1186" y1="2.43157" x2="10.1186" y2="63.2207" gradientUnits="userSpaceOnUse">
<stop stop-color="#83F9FF"/>
<stop offset="0.44" stop-color="#71C5FC"/>
<stop offset="1" stop-color="#597EF7"/>
</linearGradient>
<linearGradient id="paint1_linear_263_459" x1="7.41443" y1="5.22767" x2="7.41443" y2="52.8655" gradientUnits="userSpaceOnUse">
<stop stop-color="#83F9FF"/>
<stop offset="0.44" stop-color="#71C5FC"/>
<stop offset="1" stop-color="#597EF7"/>
</linearGradient>
<linearGradient id="paint2_linear_263_459" x1="17.0532" y1="31.6905" x2="17.0532" y2="46.0315" gradientUnits="userSpaceOnUse">
<stop stop-color="#009FE8"/>
<stop offset="0.64" stop-color="#3748BF"/>
<stop offset="1" stop-color="#531DAB"/>
</linearGradient>
<linearGradient id="paint3_linear_263_459" x1="35.5944" y1="9.50594" x2="35.5944" y2="56.6711" gradientUnits="userSpaceOnUse">
<stop stop-color="#83F9FF"/>
<stop offset="0.44" stop-color="#71C5FC"/>
<stop offset="1" stop-color="#597EF7"/>
</linearGradient>
<linearGradient id="paint4_linear_263_459" x1="24.1626" y1="-1.76258" x2="24.1626" y2="9.50995" gradientUnits="userSpaceOnUse">
<stop stop-color="#FAED00"/>
<stop offset="0.06" stop-color="#FBD907"/>
<stop offset="0.24" stop-color="#FCA818"/>
<stop offset="0.37" stop-color="#FE8922"/>
<stop offset="0.45" stop-color="#FE7D26"/>
<stop offset="0.52" stop-color="#FE722A"/>
<stop offset="0.67" stop-color="#FF5F30"/>
<stop offset="0.83" stop-color="#FF5434"/>
<stop offset="1" stop-color="#FF5035"/>
</linearGradient>
<linearGradient id="paint5_linear_263_459" x1="33.5424" y1="28.1974" x2="33.5424" y2="58.2414" gradientUnits="userSpaceOnUse">
<stop stop-color="#83F9FF"/>
<stop offset="0.44" stop-color="#71C5FC"/>
<stop offset="1" stop-color="#597EF7"/>
</linearGradient>
<clipPath id="clip0_263_459">
<rect width="41" height="60" fill="white"/>
</clipPath>
</defs>
</svg>
