<svg width="132" height="156" viewBox="0 0 132 156" fill="none" xmlns="http://www.w3.org/2000/svg">
<g opacity="0.84">
<path d="M1.6941 1.35645H13.8785C20.3904 1.35645 26.8386 2.38749 32.8549 4.39071C38.8711 6.39393 44.3376 9.3301 48.9422 13.0316C53.5469 16.733 57.1995 21.1273 59.6915 25.9635C62.1835 30.7997 63.4661 35.9831 63.4661 41.2178V153.73H1.64258V1.35645H1.6941Z" fill="url(#paint0_linear_279_424)"/>
<path d="M65.1653 155.076H0.00585938V0H13.9162C27.5031 0.0136986 40.5286 4.35848 50.136 12.0814C59.7434 19.8044 65.1483 30.2751 65.1653 41.197V155.076ZM3.34175 152.374H61.7908V41.197C61.7771 30.9937 56.7288 21.2114 47.7536 13.9966C38.7783 6.78172 26.6091 2.72361 13.9162 2.71265H3.38039L3.34175 152.374Z" fill="white"/>
</g>
<g opacity="0.84">
<path d="M23.8726 36.7861C26.7873 36.7848 29.6739 37.2453 32.3671 38.1413C35.0603 39.0373 37.5074 40.3513 39.5685 42.0081C41.6296 43.6649 43.2642 45.632 44.3788 47.797C45.4935 49.962 46.0663 52.2823 46.0646 54.6254V153.73H1.69336V54.6254C1.69167 52.2832 2.2641 49.9637 3.37796 47.7994C4.49181 45.6351 6.12525 43.6684 8.18494 42.0118C10.2446 40.3551 12.6902 39.0409 15.382 38.1443C18.0737 37.2476 20.9589 36.7861 23.8726 36.7861Z" fill="url(#paint1_linear_279_424)"/>
<path d="M47.7523 155.076H0.00644039V54.6462C-0.0674676 52.0886 0.495375 49.5449 1.66189 47.1646C2.8284 44.7844 4.57505 42.6156 6.79917 40.7857C9.02329 38.9558 11.68 37.5017 14.6132 36.509C17.5463 35.5163 20.6968 35.0049 23.8794 35.0049C27.0619 35.0049 30.2123 35.5163 33.1455 36.509C36.0787 37.5017 38.7354 38.9558 40.9595 40.7857C43.1837 42.6156 44.9303 44.7844 46.0968 47.1646C47.2633 49.5449 47.8262 52.0886 47.7523 54.6462V155.076ZM3.38097 152.374H44.4035V54.6255C44.472 52.4269 43.9925 50.2394 42.9932 48.1921C41.9939 46.1447 40.495 44.2788 38.5848 42.7042C36.6745 41.1297 34.3916 39.8784 31.8705 39.024C29.3494 38.1697 26.6411 37.7295 23.9051 37.7295C21.1691 37.7295 18.4608 38.1697 15.9397 39.024C13.4186 39.8784 11.1357 41.1297 9.22547 42.7042C7.31524 44.2788 5.81631 46.1447 4.81699 48.1921C3.81767 50.2394 3.33817 52.4269 3.40673 54.6255L3.38097 152.374Z" fill="white"/>
</g>
<g opacity="0.8">
<path d="M54.901 70.8087C57.8376 70.8019 60.747 71.2609 63.4626 72.1596C66.1781 73.0583 68.6463 74.3788 70.7258 76.0457C72.8054 77.7125 74.4553 79.6928 75.581 81.8731C76.7068 84.0534 77.2862 86.3908 77.2862 88.7515V153.72H32.5801V88.7515C32.5801 83.9927 34.9317 79.4289 39.1177 76.064C43.3037 72.6991 48.9811 70.8087 54.901 70.8087Z" fill="url(#paint2_linear_279_424)"/>
<path d="M78.9225 155.076H30.9062V88.7513C30.9062 83.6328 33.4357 78.724 37.9381 75.1047C42.4405 71.4854 48.547 69.4521 54.9144 69.4521C61.2817 69.4521 67.3883 71.4854 71.8907 75.1047C76.3931 78.724 78.9225 83.6328 78.9225 88.7513V155.076ZM34.2679 152.374H75.548V88.7513C75.548 84.3509 73.3734 80.1307 69.5027 77.0192C65.6319 73.9077 60.382 72.1596 54.9079 72.1596C49.4339 72.1596 44.184 73.9077 40.3132 77.0192C36.4425 80.1307 34.2679 84.3509 34.2679 88.7513V152.374Z" fill="white"/>
</g>
<g opacity="0.84">
<path d="M130.299 1.35645V153.73H98.8594V26.6399C98.8594 19.9361 102.171 13.5067 108.067 8.76547C113.963 4.02419 121.96 1.35919 130.299 1.35645Z" fill="url(#paint3_linear_279_424)"/>
<path d="M131.987 155.076H97.2109V26.6916C97.2041 19.6252 100.686 12.8454 106.892 7.84098C113.099 2.83652 121.522 0.0164568 130.312 0H131.987V155.076ZM100.534 152.374H128.612V2.74371C121.024 3.09753 113.89 5.76861 108.671 10.2106C103.452 14.6525 100.541 20.5297 100.534 26.6398V152.374Z" fill="white"/>
</g>
<path d="M77.7877 23.2644C84.9224 23.2644 90.7062 18.6151 90.7062 12.8798C90.7062 7.14449 84.9224 2.49512 77.7877 2.49512C70.653 2.49512 64.8691 7.14449 64.8691 12.8798C64.8691 18.6151 70.653 23.2644 77.7877 23.2644Z" fill="url(#paint4_linear_279_424)"/>
<g opacity="0.84">
<path d="M107.979 70.8086C113.899 70.8086 119.576 72.699 123.762 76.0639C127.948 79.4288 130.3 83.9927 130.3 88.7514V153.72H85.6582V88.7514C85.6582 83.9927 88.0099 79.4288 92.1958 76.0639C96.3818 72.699 102.059 70.8086 107.979 70.8086Z" fill="url(#paint5_linear_279_424)"/>
<path d="M131.987 155.076H83.9707V88.751C84.116 83.7086 86.7099 78.9121 91.1976 75.3871C95.6854 71.8622 101.711 69.8887 107.985 69.8887C114.26 69.8887 120.285 71.8622 124.773 75.3871C129.261 78.9121 131.855 83.7086 132 88.751L131.987 155.076ZM87.3324 152.374H128.548V88.751C128.548 84.3575 126.377 80.144 122.512 77.0373C118.647 73.9306 113.406 72.1853 107.94 72.1853C102.475 72.1853 97.233 73.9306 93.3683 77.0373C89.5035 80.144 87.3324 84.3575 87.3324 88.751V152.374Z" fill="white"/>
</g>
<defs>
<linearGradient id="paint0_linear_279_424" x1="32.5801" y1="6.28476" x2="32.5801" y2="163.401" gradientUnits="userSpaceOnUse">
<stop stop-color="#83F9FF"/>
<stop offset="0.44" stop-color="#71C5FC"/>
<stop offset="1" stop-color="#597EF7"/>
</linearGradient>
<linearGradient id="paint1_linear_279_424" x1="23.8726" y1="13.5112" x2="23.8726" y2="136.636" gradientUnits="userSpaceOnUse">
<stop stop-color="#83F9FF"/>
<stop offset="0.44" stop-color="#71C5FC"/>
<stop offset="1" stop-color="#597EF7"/>
</linearGradient>
<linearGradient id="paint2_linear_279_424" x1="54.901" y1="81.9077" x2="54.901" y2="118.974" gradientUnits="userSpaceOnUse">
<stop stop-color="#009FE8"/>
<stop offset="0.64" stop-color="#3748BF"/>
<stop offset="1" stop-color="#531DAB"/>
</linearGradient>
<linearGradient id="paint3_linear_279_424" x1="114.586" y1="24.5692" x2="114.586" y2="146.473" gradientUnits="userSpaceOnUse">
<stop stop-color="#83F9FF"/>
<stop offset="0.44" stop-color="#71C5FC"/>
<stop offset="1" stop-color="#597EF7"/>
</linearGradient>
<linearGradient id="paint4_linear_279_424" x1="77.7877" y1="-4.55568" x2="77.7877" y2="24.5793" gradientUnits="userSpaceOnUse">
<stop stop-color="#FAED00"/>
<stop offset="0.06" stop-color="#FBD907"/>
<stop offset="0.24" stop-color="#FCA818"/>
<stop offset="0.37" stop-color="#FE8922"/>
<stop offset="0.45" stop-color="#FE7D26"/>
<stop offset="0.52" stop-color="#FE722A"/>
<stop offset="0.67" stop-color="#FF5F30"/>
<stop offset="0.83" stop-color="#FF5434"/>
<stop offset="1" stop-color="#FF5035"/>
</linearGradient>
<linearGradient id="paint5_linear_279_424" x1="107.979" y1="72.8793" x2="107.979" y2="150.531" gradientUnits="userSpaceOnUse">
<stop stop-color="#83F9FF"/>
<stop offset="0.44" stop-color="#71C5FC"/>
<stop offset="1" stop-color="#597EF7"/>
</linearGradient>
</defs>
</svg>
