<svg width="1920" height="1602" viewBox="0 0 1920 1602" fill="none" xmlns="http://www.w3.org/2000/svg">
<path d="M1656.13 204.194C1967.93 194.906 2154.32 390.91 2520.49 276.607L2570.54 1189.64L41.7951 1189.64L-51.6681 75.8505C519.631 58.8316 632.413 226.813 986.669 278.789C1281.48 298.071 1409.05 211.555 1656.13 204.194Z" fill="url(#paint0_linear_285_422)" fill-opacity="0.5"/>
<path d="M1666.77 868.102C1978.57 858.814 2160.24 1004.55 2528.84 916.033L2547.67 1915.1L21.2764 1915.1L-36.8283 784.455C534.471 767.436 643.241 892.685 996.032 929.067C1290.19 941.35 1419.69 875.463 1666.77 868.102Z" fill="url(#paint1_linear_285_422)"/>
<path d="M2124.25 985.738C2076.25 908.005 1848.25 855.057 1738.25 855.057C1386.44 855.057 1138.06 917.486 954.252 922.651C770.44 927.815 608.439 891.107 418.252 891.107C228.064 891.107 -71.7482 960.294 -71.7482 960.294C304.252 912.98 483.765 957.526 674.252 971.093C848.252 983.485 948.496 974.771 1220.07 960.295C1596.25 912.98 1728.44 927.158 2124.25 985.738Z" fill="#ECF8FF"/>
<g filter="url(#filter0_d_285_422)">
<rect x="149.252" y="938.422" width="442" height="47.8787" rx="8" fill="#FAED00"/>
</g>
<path d="M310.21 957.907V975.223C310.21 975.871 309.958 976.087 309.166 976.123C308.338 976.159 305.566 976.159 302.578 976.051C303.01 976.843 303.514 977.995 303.694 978.787C307.33 978.787 309.742 978.751 311.146 978.319C312.55 977.923 313.018 977.095 313.018 975.295V957.907H310.21ZM297.106 948.475V951.103H323.098V948.475H297.106ZM322.126 948.475V949.123C319.858 952.111 315.106 956.251 311.002 958.519C311.578 958.915 312.442 959.815 312.838 960.391C317.302 957.871 322.378 953.623 325.582 949.807L323.494 948.295L322.846 948.475H322.126ZM334.546 954.775V956.899H344.95V954.775H334.546ZM334.546 960.895V962.947H344.95V960.895H334.546ZM334.546 967.159V969.283H344.95V967.159H334.546ZM349.882 962.695V965.035H363.598V962.695H349.882ZM336.418 948.871V950.995H342.394V948.871H336.418ZM347.578 947.467V949.771H361.654V947.467H347.578ZM347.146 969.427V971.839H364.21V969.427H347.146ZM354.742 958.987V978.607H357.334V958.987H354.742ZM339.01 955.819V968.059H340.954V955.819H339.01ZM360.79 947.467V947.827C360.538 953.479 360.25 955.567 359.782 956.107C359.566 956.395 359.242 956.467 358.738 956.431C358.234 956.431 356.938 956.431 355.498 956.287C355.822 956.899 356.074 957.835 356.11 958.555C357.622 958.627 359.134 958.627 359.854 958.555C360.79 958.483 361.33 958.267 361.834 957.655C362.59 956.827 362.95 954.487 363.202 948.475C363.238 948.151 363.238 947.467 363.238 947.467H360.79ZM350.026 959.311C349.414 962.371 348.298 965.395 346.75 967.411C347.326 967.699 348.406 968.239 348.874 968.563C350.386 966.403 351.646 963.127 352.366 959.779L350.026 959.311ZM336.346 945.631C335.266 950.059 333.25 954.343 330.694 957.115C331.27 957.475 332.314 958.303 332.746 958.735C335.302 955.675 337.498 951.031 338.83 946.171L336.346 945.631ZM333.502 954.775V964.351C333.502 968.419 333.25 973.783 330.802 977.599C331.342 977.851 332.35 978.463 332.746 978.823C335.302 974.827 335.734 968.743 335.734 964.351V954.775H333.502ZM344.23 954.775V975.799C344.23 976.267 344.014 976.411 343.546 976.447C343.042 976.483 341.422 976.483 339.586 976.411C339.91 977.059 340.306 978.103 340.414 978.715C342.898 978.715 344.374 978.679 345.274 978.283C346.21 977.887 346.498 977.131 346.498 975.799V954.775H344.23ZM352.69 948.223C352.186 952.291 350.89 955.855 346.462 957.727C347.002 958.123 347.65 958.987 347.974 959.563C353.014 957.295 354.562 953.191 355.174 948.223H352.69ZM341.746 948.871V949.303C341.206 951.103 340.198 953.695 339.298 955.315C339.802 955.531 340.594 955.999 341.026 956.359C342.106 954.667 343.474 952.003 344.23 949.771L342.646 948.727L342.286 948.871H341.746ZM367.882 947.575V950.023H399.238V947.575H367.882ZM382.39 948.619V962.551C382.39 968.527 381.274 973.819 367.234 976.411C367.81 977.059 368.566 978.211 368.854 978.787C383.29 975.727 385.198 969.535 385.198 962.587V948.619H382.39ZM373.75 961.075H394.27V964.747H373.75V961.075ZM373.75 955.315H394.27V958.915H373.75V955.315ZM371.194 953.047V967.015H397.006V953.047H371.194ZM374.65 967.303L372.346 968.239C377.17 976.411 386.026 978.103 399.274 978.643C399.418 977.779 399.958 976.627 400.426 975.979C387.43 975.655 379.222 974.431 374.65 967.303ZM410.614 953.587C413.314 954.919 416.59 957.043 418.138 958.555L420.046 956.791C418.426 955.279 415.114 953.263 412.414 952.003L410.614 953.587ZM427.246 948.691V949.123C423.322 956.215 412.954 961.075 403.882 962.767C404.386 963.343 404.926 964.459 405.178 965.143C414.682 963.055 425.338 958.015 430.018 949.627L428.254 948.547L427.786 948.691H427.246ZM415.222 948.691V950.959H427.93V948.691H415.222ZM417.886 945.595C415.402 948.619 410.65 952.003 404.17 954.271C404.782 954.739 405.61 955.639 406.006 956.287C412.702 953.623 417.598 950.059 420.91 946.243L417.886 945.595ZM415.222 966.799C418.066 968.347 421.486 970.759 423.106 972.451L425.23 970.723C423.502 968.995 420.046 966.727 417.202 965.251L415.222 966.799ZM432.502 961.291V961.687C428.614 970.759 417.742 975.043 406.618 976.375C407.05 976.987 407.59 978.103 407.77 978.859C419.542 977.131 430.774 972.631 435.31 962.119L433.546 961.147L433.042 961.291H432.502ZM420.802 961.291V963.595H433.222V961.291H420.802ZM423.718 957.907C420.91 961.327 415.438 965.071 407.806 967.447C408.382 967.951 409.174 968.923 409.498 969.535C417.382 966.763 423.07 962.839 426.706 958.591L423.718 957.907ZM456.46 976.344L454.159 974.069L462.149 966.078H442.078V962.755H462.149L454.159 954.777L456.46 952.489L468.388 964.417L456.46 976.344Z" fill="black"/>
<rect y="1010" width="2003" height="592" fill="white"/>
<path d="M1540.26 305.16C1852.05 288.67 2068.26 390.253 2455.92 390.253L2474.76 1046L-51.6378 1046L-75.7416 263C310.259 263 411.467 240.571 764.258 305.16C912.258 332.256 1076.26 355.001 1540.26 305.16Z" fill="white"/>
<defs>
<filter id="filter0_d_285_422" x="129.252" y="922.422" width="482" height="87.8789" filterUnits="userSpaceOnUse" color-interpolation-filters="sRGB">
<feFlood flood-opacity="0" result="BackgroundImageFix"/>
<feColorMatrix in="SourceAlpha" type="matrix" values="0 0 0 0 0 0 0 0 0 0 0 0 0 0 0 0 0 0 127 0" result="hardAlpha"/>
<feOffset dy="4"/>
<feGaussianBlur stdDeviation="10"/>
<feColorMatrix type="matrix" values="0 0 0 0 0 0 0 0 0 0 0 0 0 0 0 0 0 0 0.25 0"/>
<feBlend mode="normal" in2="BackgroundImageFix" result="effect1_dropShadow_285_422"/>
<feBlend mode="normal" in="SourceGraphic" in2="effect1_dropShadow_285_422" result="shape"/>
</filter>
<linearGradient id="paint0_linear_285_422" x1="1253.27" y1="-11.773" x2="1236.37" y2="1695.48" gradientUnits="userSpaceOnUse">
<stop stop-color="#9CFAFF"/>
<stop offset="1" stop-color="#7A98F9"/>
</linearGradient>
<linearGradient id="paint1_linear_285_422" x1="1269.25" y1="708.989" x2="1269.25" y2="1990.59" gradientUnits="userSpaceOnUse">
<stop stop-color="#9CFAFF"/>
<stop offset="1" stop-color="#7A98F9"/>
</linearGradient>
</defs>
</svg>
