<svg width="56" height="122" viewBox="0 0 56 122" fill="none" xmlns="http://www.w3.org/2000/svg">
<path d="M1.26618 2.20472C0.475731 3.13118 0.0332031 4.37489 0.0332031 5.66997C0.0332031 6.96505 0.475731 8.20875 1.26618 9.13522L45.4277 60.9998L1.26618 112.854C0.475731 113.781 0.0332031 115.024 0.0332031 116.319C0.0332031 117.614 0.475731 118.858 1.26618 119.785C1.6504 120.236 2.10977 120.595 2.61719 120.841C3.12461 121.086 3.66979 121.212 4.22056 121.212C4.77132 121.212 5.3165 121.086 5.82392 120.841C6.33134 120.595 6.79072 120.236 7.17493 119.785L54.1368 64.6207C54.9616 63.652 55.4232 62.3527 55.4232 60.9998C55.4232 59.647 54.9616 58.3477 54.1368 57.379L7.17493 2.2151C6.79072 1.76333 6.33134 1.40427 5.82392 1.15909C5.3165 0.913913 4.77132 0.787598 4.22056 0.787598C3.66979 0.787598 3.12461 0.913913 2.61719 1.15909C2.10977 1.40427 1.6504 1.76333 1.26618 2.2151V2.20472Z" fill="#F8F8F8"/>
</svg>
