<svg width="56" height="19" viewBox="0 0 56 19" fill="none" xmlns="http://www.w3.org/2000/svg">
<g clip-path="url(#clip0_277_326)">
<path d="M0.0950019 5.97555C0.40211 3.26063 3.30334 0.349726 6.55456 0.038596C8.59022 -0.156519 10.3943 0.372577 11.9444 1.76827C12.176 1.97656 12.1983 2.11719 11.9615 2.30527C11.9504 2.31406 11.9427 2.32724 11.9324 2.33779C11.5978 2.67792 11.3173 3.16483 10.915 3.31776C10.4843 3.48212 10.1867 2.89589 9.80493 2.67968C6.39758 0.746987 2.20959 3.2747 2.16584 7.27016C2.13924 9.70735 3.64647 11.8439 5.76535 12.4583C7.71865 13.0252 9.49611 12.6868 10.963 11.1443C11.5249 10.5528 11.7634 9.81193 11.9169 9.02796C11.9778 8.71771 11.7651 8.77747 11.6064 8.77659C10.3351 8.77396 9.06289 8.76429 7.79157 8.78362C7.41841 8.78978 7.24341 8.69925 7.27429 8.28002C7.30346 7.88803 7.27343 7.49077 7.26829 7.09614C7.26486 6.85884 7.32748 6.72613 7.60885 6.72788C9.60934 6.73931 11.609 6.73667 13.6095 6.73228C13.8119 6.73228 13.9269 6.77974 13.9475 7.01353C14.1413 9.1888 13.727 11.1566 12.1975 12.7975C11.1938 13.8742 9.95334 14.4464 8.5602 14.6397C5.40848 15.0774 2.90272 13.9392 1.11498 11.2322C0.479316 10.2734 0.132747 9.19055 0.0366685 8.03217C-0.0311011 7.21391 -0.00107658 6.82896 0.0950019 5.97555Z" fill="#417ABE"/>
<path d="M41.6633 6.21492C41.6624 5.48456 41.6315 5.51971 42.3453 5.51971C42.588 5.51971 43.0195 5.52938 43.2606 5.5285C43.6329 5.52674 43.6166 5.63309 43.6149 5.96004C43.6029 8.63628 43.6063 11.3125 43.6089 13.9896C43.6097 14.8149 43.5196 15.627 43.2185 16.3952C42.6275 17.9025 41.5046 18.7093 39.9545 18.9466C38.1007 19.2305 36.3404 18.3982 35.3847 16.7678C35.0673 16.2264 35.0725 16.2062 35.6155 15.9522C35.6807 15.9215 35.7433 15.8863 35.8094 15.8599C36.1276 15.7316 36.4476 15.504 36.765 15.5057C37.1038 15.5084 37.1493 15.9786 37.3629 16.215C38.3632 17.318 40.0188 17.4296 40.9847 16.3926C41.6701 15.6569 41.6796 14.7218 41.6127 13.6935C41.1323 14.1698 40.6416 14.4871 40.0651 14.6242C38.6505 14.9599 37.4007 14.5785 36.3369 13.6064C34.8194 12.2195 34.3802 10.4591 34.9678 8.50972C35.4894 6.77917 36.6904 5.66737 38.4515 5.30878C39.535 5.08818 40.5541 5.29559 41.4025 6.09188C41.4522 6.13846 41.5938 6.32478 41.6633 6.21492ZM36.807 10.1207C36.8096 10.1664 36.8036 10.3449 36.8336 10.5162C36.8688 10.7166 36.9228 10.9161 36.9906 11.1077C37.628 12.8963 39.7743 13.4342 41.0233 12.1211C41.9275 11.171 42.0484 9.29282 41.2824 8.2109C40.7257 7.42428 39.9913 7.00505 39.0374 7.16677C37.6546 7.39967 36.8182 8.48863 36.807 10.1207Z" fill="#417ABE"/>
<path d="M33.9958 10.0241C33.9984 12.6616 31.9953 14.7147 29.4201 14.7156C26.8165 14.7165 24.7577 12.6687 24.7637 10.0838C24.7697 7.30037 26.7333 5.2587 29.402 5.26221C32.0373 5.26485 33.9932 7.29159 33.9958 10.0241ZM31.9704 9.94234C31.9764 8.49567 31.0963 7.36981 29.7718 7.12723C28.5794 6.90926 27.3715 7.70467 26.9323 8.99665C26.337 10.7474 27.4247 12.6511 29.1361 12.8532C30.7094 13.0405 31.9627 11.752 31.9704 9.94234Z" fill="#F7B600"/>
<path d="M19.3687 14.7308C16.8166 14.7264 14.7561 12.6469 14.7578 10.0796C14.7604 7.34803 16.7497 5.2378 19.3198 5.24219C22.01 5.24659 24.0294 7.27596 24.0474 9.95748C24.0654 12.6785 21.9388 14.7677 19.3687 14.7308ZM16.8218 9.96803C16.8226 10.6773 16.9779 11.2134 17.3356 11.7434C17.9473 12.6495 19.1594 13.1145 20.3415 12.7436C21.6171 12.2637 22.2288 10.7766 21.9002 9.22536C21.5965 7.791 20.2532 6.8954 18.8892 7.18719C17.6445 7.45438 16.8201 8.5653 16.8218 9.96803Z" fill="#E7382E"/>
<path d="M47.6186 9.88964C47.622 7.89103 48.7912 5.99173 50.6931 5.43451C51.4188 5.22182 52.1403 5.24028 52.9055 5.39496C54.5113 5.71927 55.3134 6.84866 55.9139 8.23292C56.1215 8.71104 55.9568 9.01953 55.4009 9.1918C54.2454 9.54951 53.1671 10.1015 52.0511 10.5594C51.4617 10.8011 50.8818 11.0691 50.2873 11.2985C50.0162 11.4031 50.0128 11.52 50.1492 11.7476C51.0088 13.1855 52.9758 13.0836 53.8688 12.2416C53.9589 12.1563 54.109 12.0588 54.139 11.9946C54.4118 11.411 54.7258 11.7072 55.0415 11.919C55.292 12.0878 55.5356 12.2671 55.7912 12.427C56.0186 12.5694 56.0134 12.7012 55.8573 12.913C54.7189 14.4634 52.564 15.1182 50.7403 14.517C48.7072 13.8464 47.5062 11.7485 47.6186 9.88964ZM49.6508 9.47041C49.6105 9.73408 49.7357 9.79384 49.9716 9.69365C51.1314 9.20059 52.2887 8.70225 53.4511 8.21534C53.7084 8.10724 53.7393 7.97365 53.56 7.76974C53.276 7.44982 52.9398 7.21955 52.5186 7.13781C51.1417 6.87151 49.7194 8.01935 49.6508 9.47041Z" fill="#E7382E"/>
<path d="M44.7871 7.45303C44.7871 5.28831 44.7939 3.12271 44.7793 0.957983C44.7768 0.608182 44.878 0.493046 45.216 0.518535C45.5857 0.546659 45.9597 0.547538 46.3295 0.518535C46.7001 0.489531 46.7824 0.648611 46.7807 1.00017C46.7678 3.66235 46.7713 6.32453 46.7713 8.98759C46.7713 10.6698 46.7618 12.352 46.7807 14.0342C46.785 14.3884 46.682 14.493 46.3458 14.4658C45.9769 14.4359 45.6012 14.4332 45.2323 14.4658C44.8591 14.4992 44.7793 14.3418 44.7811 13.9911C44.7939 11.8115 44.7879 9.63182 44.7871 7.45303Z" fill="#00A245"/>
</g>
<defs>
<clipPath id="clip0_277_326">
<rect width="56" height="19" fill="white"/>
</clipPath>
</defs>
</svg>
