<svg width="46" height="46" viewBox="0 0 46 46" fill="none" xmlns="http://www.w3.org/2000/svg">
<path d="M45 23C45 35.1503 35.1503 45 23 45C10.8497 45 1 35.1503 1 23C1 10.8497 10.8497 1 23 1C35.1503 1 45 10.8497 45 23Z" fill="#FAED00" stroke="#FAED00" stroke-width="2"/>
<path d="M39.8891 23C39.8891 32.3274 32.3277 39.8889 23.0002 39.8889C13.6727 39.8889 6.11133 32.3274 6.11133 23C6.11133 13.6725 13.6727 6.11108 23.0002 6.11108C32.3277 6.11108 39.8891 13.6725 39.8891 23Z" fill="#FBC507" stroke="#FBC507" stroke-width="2"/>
<path d="M34.7763 23.0002C34.7763 29.5049 29.5032 34.778 22.9985 34.778C16.4938 34.778 11.2207 29.5049 11.2207 23.0002C11.2207 16.4955 16.4938 11.2224 22.9985 11.2224C29.5032 11.2224 34.7763 16.4955 34.7763 23.0002Z" fill="#FE8922" stroke="#FE8922" stroke-width="2"/>
<path d="M23.0002 29.3889C26.5287 29.3889 29.3891 26.5285 29.3891 23C29.3891 19.4715 26.5287 16.6111 23.0002 16.6111C19.4717 16.6111 16.6113 19.4715 16.6113 23C16.6113 26.5285 19.4717 29.3889 23.0002 29.3889Z" fill="#FF402C"/>
</svg>
