<svg width="33" height="29" viewBox="0 0 33 29" fill="none" xmlns="http://www.w3.org/2000/svg">
<path fill-rule="evenodd" clip-rule="evenodd" d="M32.7497 14.4999C32.7497 15.0386 32.5357 15.5553 32.1548 15.9362C31.7739 16.3171 31.2572 16.5311 30.7185 16.5311L7.18441 16.5311L15.9066 25.2493C16.0955 25.4381 16.2453 25.6623 16.3475 25.9091C16.4497 26.1558 16.5023 26.4203 16.5023 26.6874C16.5023 26.9545 16.4497 27.2189 16.3475 27.4657C16.2453 27.7124 16.0955 27.9367 15.9066 28.1255C15.7177 28.3144 15.4935 28.4642 15.2468 28.5664C15 28.6686 14.7356 28.7212 14.4685 28.7212C14.2014 28.7212 13.9369 28.6686 13.6902 28.5664C13.4434 28.4642 13.2192 28.3144 13.0303 28.1255L0.842847 15.938C0.653684 15.7493 0.503603 15.5252 0.401202 15.2784C0.298801 15.0316 0.246091 14.7671 0.246091 14.4999C0.246091 14.2327 0.298801 13.9681 0.401202 13.7214C0.503603 13.4746 0.653684 13.2504 0.842847 13.0618L13.0303 0.874258C13.4118 0.492844 13.9291 0.278567 14.4685 0.278567C15.0079 0.278567 15.5252 0.492844 15.9066 0.874259C16.288 1.25567 16.5023 1.77298 16.5023 2.31238C16.5023 2.85179 16.288 3.36909 15.9066 3.75051L7.18441 12.4686L30.7185 12.4686C31.2572 12.4686 31.7739 12.6826 32.1548 13.0636C32.5357 13.4445 32.7497 13.9612 32.7497 14.4999Z" fill="white" fill-opacity="0.5"/>
</svg>
