<svg width="33" height="29" viewBox="0 0 33 29" fill="none" xmlns="http://www.w3.org/2000/svg">
<path fill-rule="evenodd" clip-rule="evenodd" d="M0.250276 14.5001C0.250276 13.9614 0.464281 13.4447 0.845214 13.0638C1.22615 12.6829 1.74281 12.4689 2.28153 12.4689L25.8156 12.4689L17.0934 3.75074C16.9045 3.56189 16.7547 3.33768 16.6525 3.09093C16.5503 2.84417 16.4977 2.5797 16.4977 2.31262C16.4977 2.04553 16.5503 1.78106 16.6525 1.53431C16.7547 1.28755 16.9045 1.06335 17.0934 0.874491C17.2823 0.685635 17.5065 0.535824 17.7532 0.433615C18 0.331406 18.2644 0.278804 18.5315 0.278804C18.7986 0.278804 19.0631 0.331406 19.3098 0.433615C19.5566 0.535825 19.7808 0.685635 19.9697 0.874492L32.1572 13.062C32.3463 13.2507 32.4964 13.4748 32.5988 13.7216C32.7012 13.9684 32.7539 14.2329 32.7539 14.5001C32.7539 14.7673 32.7012 15.0319 32.5988 15.2786C32.4964 15.5254 32.3463 15.7496 32.1572 15.9382L19.9697 28.1257C19.5882 28.5072 19.0709 28.7214 18.5315 28.7214C17.9921 28.7214 17.4748 28.5072 17.0934 28.1257C16.712 27.7443 16.4977 27.227 16.4977 26.6876C16.4977 26.1482 16.712 25.6309 17.0934 25.2495L25.8156 16.5314L2.28153 16.5314C1.74281 16.5314 1.22615 16.3174 0.845214 15.9364C0.46428 15.5555 0.250276 15.0388 0.250276 14.5001Z" fill="black"/>
</svg>
